<svg id="Layer_1" data-name="Layer 1" xmlns="http://www.w3.org/2000/svg" viewBox="0 0 340 640"><defs><style>.cls-1{fill:#515151;}.cls-2{fill:#828282;}.cls-3{fill:#fff;}</style></defs><title>Artboard 5</title><path class="cls-1" d="M311.46,1H28.54A26.25,26.25,0,0,0,2.29,27.25v90.5A26.25,26.25,0,0,0,28.54,144h82V607.27a18.72,18.72,0,0,0,11.36,17.22v3.92A10.59,10.59,0,0,0,132.45,639h73.78a10.59,10.59,0,0,0,10.59-10.59V625a18.73,18.73,0,0,0,12.68-17.72V144h82a26.25,26.25,0,0,0,26.25-26.25V27.25A26.25,26.25,0,0,0,311.46,1Z"/><rect class="cls-2" x="105.5" y="163" width="128" height="19" rx="9.5"/><rect class="cls-2" x="105.5" y="196" width="128" height="19" rx="9.5"/><rect class="cls-2" x="105.5" y="229" width="128" height="19" rx="9.5"/><rect class="cls-2" x="105.5" y="262" width="128" height="19" rx="9.5"/><rect class="cls-2" x="105.5" y="295" width="128" height="19" rx="9.5"/><rect class="cls-2" x="105.5" y="328" width="128" height="19" rx="9.5"/><rect class="cls-2" x="105.5" y="361" width="128" height="19" rx="9.5"/><rect class="cls-2" x="106.5" y="394" width="128" height="19" rx="9.5"/><rect class="cls-2" x="105.5" y="427" width="128" height="19" rx="9.5"/><rect class="cls-2" x="105.5" y="460" width="128" height="19" rx="9.5"/><rect class="cls-2" x="105.5" y="493" width="128" height="19" rx="9.5"/><rect class="cls-2" x="105.5" y="526" width="128" height="19" rx="9.5"/><rect class="cls-2" x="105.5" y="559" width="128" height="19" rx="9.5"/><rect class="cls-2" x="106.5" y="592" width="128" height="19" rx="9.5"/><ellipse class="cls-3" cx="170" cy="85" rx="24.5" ry="43"/><ellipse class="cls-3" cx="130" cy="85" rx="24.5" ry="43"/><ellipse cx="122.5" cy="96.5" rx="7" ry="18.5"/><ellipse cx="161.5" cy="96.5" rx="7" ry="18.5"/><path d="M122.84,40.07a2.47,2.47,0,0,1-1.68-.65,2.5,2.5,0,0,1-.17-3.53c2.66-2.92,11.18-5.9,19.59-5.68a2.5,2.5,0,0,1-.13,5c-7.36-.19-14.36,2.51-15.76,4A2.49,2.49,0,0,1,122.84,40.07Z"/><path d="M184.76,38a2.49,2.49,0,0,1-2.15-1.23c-1.11-1.86-7.44-5.83-14.49-6.71a2.5,2.5,0,1,1,.61-5c8.26,1,16.07,5.55,18.18,9.13a2.51,2.51,0,0,1-.88,3.43A2.55,2.55,0,0,1,184.76,38Z"/></svg>