<svg id="Layer_1" data-name="Layer 1" xmlns="http://www.w3.org/2000/svg" xmlns:xlink="http://www.w3.org/1999/xlink" viewBox="0 0 1920 1080"><defs><style>.cls-1{fill:url(#linear-gradient);}.cls-2{fill:#203759;}.cls-3{fill:#092305;}.cls-4{fill:#363a35;}</style><linearGradient id="linear-gradient" x1="959.5" x2="959.5" y2="1080" gradientUnits="userSpaceOnUse"><stop offset="0" stop-color="#062759"/><stop offset="0.04" stop-color="#072655"/><stop offset="0.29" stop-color="#0f213c"/><stop offset="0.45" stop-color="#121f33"/><stop offset="0.54" stop-color="#171f32" stop-opacity="0.99"/><stop offset="0.62" stop-color="#271e30" stop-opacity="0.98"/><stop offset="0.71" stop-color="#401c2c" stop-opacity="0.95"/><stop offset="0.8" stop-color="#651b26" stop-opacity="0.92"/><stop offset="0.89" stop-color="#93181f" stop-opacity="0.87"/><stop offset="0.98" stop-color="#cc1517" stop-opacity="0.82"/><stop offset="1" stop-color="#dd1414" stop-opacity="0.8"/></linearGradient></defs><title>Baggrund_alt</title><rect class="cls-1" x="-1" width="1921" height="1080"/><ellipse class="cls-2" cx="407.89" cy="95.95" rx="41.02" ry="32.44" transform="translate(-3.36 176.31) rotate(-24.29)"/><path class="cls-3" d="M429.11,98.82c-2.16,4.72.74,5.73.16,12.06-.24,2.65-5.44-2.71-8-8.28S417.85,92,420.17,90.71C437.24,81.16,430.17,96.49,429.11,98.82Z"/><path class="cls-3" d="M391.85,105.27c.3,7.92,4.44,10.37,7.65,21.5,1.34,4.66-8.27-6-14.76-16.53S374,90.62,376,88.83C390.8,75.69,391.7,101.37,391.85,105.27Z"/><path class="cls-3" d="M429.42,72.27c1.9,3-4.31,14-10.07,17.73s-10.78-4.34-12.68-7.31,8.85-2.27,8.88-9.11C415.63,53,427.52,69.3,429.42,72.27Z"/><path class="cls-4" d="M386.92,75.62c0-3,9.43-8.14,15.23-8.18s5.77,8,5.8,11-7.38-2.36-10.49,2.54C388.1,95.7,386.94,78.6,386.92,75.62Z"/><polygon class="cls-2" points="112.4 74.21 106.4 85.16 112.02 96.31 99.75 93.99 90.88 102.78 89.3 90.39 78.2 84.67 89.49 79.34 91.5 67.02 100.06 76.11 112.4 74.21"/><polygon class="cls-2" points="280.4 304.21 274.4 315.16 280.02 326.31 267.75 323.99 258.88 332.78 257.3 320.39 246.2 314.67 257.49 309.34 259.5 297.02 268.06 306.11 280.4 304.21"/><polygon class="cls-2" points="146.4 376.21 140.4 387.16 146.02 398.31 133.75 395.99 124.88 404.78 123.3 392.39 112.2 386.67 123.49 381.34 125.5 369.02 134.06 378.11 146.4 376.21"/><polygon class="cls-2" points="180.4 205.21 174.4 216.16 180.02 227.31 167.75 224.99 158.88 233.78 157.3 221.39 146.2 215.67 157.49 210.34 159.5 198.02 168.06 207.11 180.4 205.21"/><polygon class="cls-2" points="582.4 286.21 576.4 297.16 582.02 308.31 569.75 305.99 560.88 314.78 559.3 302.39 548.2 296.67 559.49 291.34 561.5 279.02 570.06 288.11 582.4 286.21"/><polygon class="cls-2" points="653.4 151.21 647.4 162.16 653.02 173.31 640.75 170.99 631.88 179.78 630.3 167.39 619.2 161.67 630.49 156.34 632.5 144.02 641.06 153.11 653.4 151.21"/><polygon class="cls-2" points="767.4 322.21 761.4 333.16 767.02 344.31 754.75 341.99 745.88 350.78 744.3 338.39 733.2 332.67 744.49 327.34 746.5 315.02 755.06 324.11 767.4 322.21"/><polygon class="cls-2" points="977.4 169.21 971.4 180.16 977.02 191.31 964.75 188.99 955.88 197.78 954.3 185.39 943.2 179.67 954.49 174.34 956.5 162.02 965.06 171.11 977.4 169.21"/><polygon class="cls-2" points="920.4 340.21 914.4 351.16 920.02 362.31 907.75 359.99 898.88 368.78 897.3 356.39 886.2 350.67 897.49 345.34 899.5 333.02 908.06 342.11 920.4 340.21"/><polygon class="cls-2" points="848.4 187.21 842.4 198.16 848.02 209.31 835.75 206.99 826.88 215.78 825.3 203.39 814.2 197.67 825.49 192.34 827.5 180.02 836.06 189.11 848.4 187.21"/><polygon class="cls-2" points="865.4 52.21 859.4 63.16 865.02 74.31 852.75 71.99 843.88 80.78 842.3 68.39 831.2 62.67 842.49 57.34 844.5 45.02 853.06 54.11 865.4 52.21"/><polygon class="cls-2" points="1456.4 376.21 1450.4 387.16 1456.02 398.31 1443.75 395.99 1434.88 404.78 1433.3 392.39 1422.2 386.67 1433.49 381.34 1435.5 369.02 1444.06 378.11 1456.4 376.21"/><polygon class="cls-2" points="1315.4 529.21 1309.4 540.16 1315.02 551.31 1302.75 548.99 1293.88 557.78 1292.3 545.39 1281.2 539.67 1292.49 534.34 1294.5 522.02 1303.06 531.11 1315.4 529.21"/><polygon class="cls-2" points="1163.4 250.21 1157.4 261.16 1163.02 272.31 1150.75 269.99 1141.88 278.78 1140.3 266.39 1129.2 260.67 1140.49 255.34 1142.5 243.02 1151.06 252.11 1163.4 250.21"/><polygon class="cls-2" points="1197.4 101.21 1191.4 112.16 1197.02 123.31 1184.75 120.99 1175.88 129.78 1174.3 117.39 1163.2 111.67 1174.49 106.34 1176.5 94.02 1185.06 103.11 1197.4 101.21"/><polygon class="cls-2" points="1597.4 187.21 1591.4 198.16 1597.02 209.31 1584.75 206.99 1575.88 215.78 1574.3 203.39 1563.2 197.67 1574.49 192.34 1576.5 180.02 1585.06 189.11 1597.4 187.21"/><polygon class="cls-2" points="1473.4 77.21 1467.4 88.16 1473.02 99.31 1460.75 96.99 1451.88 105.78 1450.3 93.39 1439.2 87.67 1450.49 82.34 1452.5 70.02 1461.06 79.11 1473.4 77.21"/><polygon class="cls-2" points="1812.4 119.21 1806.4 130.16 1812.02 141.31 1799.75 138.99 1790.88 147.78 1789.3 135.39 1778.2 129.67 1789.49 124.34 1791.5 112.02 1800.06 121.11 1812.4 119.21"/><polygon class="cls-2" points="1795.4 322.21 1789.4 333.16 1795.02 344.31 1782.75 341.99 1773.88 350.78 1772.3 338.39 1761.2 332.67 1772.49 327.34 1774.5 315.02 1783.06 324.11 1795.4 322.21"/><polygon class="cls-2" points="1631.4 439.21 1625.4 450.16 1631.02 461.31 1618.75 458.99 1609.88 467.78 1608.3 455.39 1597.2 449.67 1608.49 444.34 1610.5 432.02 1619.06 441.11 1631.4 439.21"/><polygon class="cls-2" points="1648.4 52.21 1642.4 63.16 1648.02 74.31 1635.75 71.99 1626.88 80.78 1625.3 68.39 1614.2 62.67 1625.49 57.34 1627.5 45.02 1636.06 54.11 1648.4 52.21"/></svg>
