<svg id="Layer_1" data-name="Layer 1" xmlns="http://www.w3.org/2000/svg" viewBox="0 0 290 640"><defs><style>.cls-1{fill:#b7a925;}.cls-2{fill:#825050;}.cls-3{fill:#fff;}.cls-4{fill:#c40c0c;}.cls-5{fill:none;stroke:#000;stroke-linecap:round;stroke-miterlimit:10;stroke-width:5px;}</style></defs><title>daarlig_skrue</title><path class="cls-1" d="M267.92,2,22.05,2.1A21.16,21.16,0,0,0,5.13,36l110,146.75V534.86a1.26,1.26,0,0,0,.2.67L145,638.05l29.72-102.67a.85.85,0,0,0,.09-.31l0-.07h0a.68.68,0,0,0,0-.14v-352l33.37-44.62L284.89,35.8A21.17,21.17,0,0,0,267.92,2Z"/><rect class="cls-2" x="111.17" y="204.22" width="67.66" height="9.55" rx="4.18"/><rect class="cls-2" x="111.17" y="223.32" width="67.66" height="9.55" rx="4.18"/><rect class="cls-2" x="111.17" y="242.42" width="67.66" height="9.55" rx="4.18"/><rect class="cls-2" x="111.17" y="261.53" width="67.66" height="9.55" rx="4.18"/><rect class="cls-2" x="111.17" y="280.63" width="67.66" height="9.55" rx="4.18"/><rect class="cls-2" x="111.17" y="299.74" width="67.66" height="9.55" rx="4.18"/><rect class="cls-2" x="111.17" y="318.84" width="67.66" height="9.55" rx="4.18"/><rect class="cls-2" x="111.17" y="337.95" width="67.66" height="9.55" rx="4.18"/><rect class="cls-2" x="111.17" y="357.05" width="67.66" height="9.55" rx="4.18"/><rect class="cls-2" x="111.17" y="376.16" width="67.66" height="9.55" rx="4.18"/><rect class="cls-2" x="111.17" y="395.26" width="67.66" height="9.55" rx="4.18"/><rect class="cls-2" x="111.17" y="414.36" width="67.66" height="9.55" rx="4.18"/><rect class="cls-2" x="111.17" y="433.47" width="67.66" height="9.55" rx="4.18"/><rect class="cls-2" x="111.17" y="452.57" width="67.66" height="9.55" rx="4.18"/><rect class="cls-2" x="111.17" y="471.68" width="67.66" height="9.55" rx="4.18"/><rect class="cls-2" x="111.17" y="490.78" width="67.66" height="9.55" rx="4.18"/><rect class="cls-2" x="111.17" y="509.89" width="67.66" height="9.55" rx="4.18"/><path class="cls-3" d="M126.3,80c0-20.67-6.59-37.42-14.73-37.42S96.85,59.37,96.85,80A82.69,82.69,0,0,0,99.36,101c2.65,10,7.13,16.5,12.21,16.5,4.31,0,8.18-4.69,10.87-12.18C124.84,98.62,126.3,89.76,126.3,80Z"/><path class="cls-3" d="M155.75,81.63c0-20.66-6.59-37.41-14.73-37.41S126.3,61,126.3,81.63a83.17,83.17,0,0,0,2.51,20.92c2.65,10,7.13,16.49,12.21,16.49,4.31,0,8.18-4.69,10.88-12.18C154.29,100.21,155.75,91.35,155.75,81.63Z"/><ellipse cx="105.2" cy="72.87" rx="5.97" ry="13.53"/><ellipse cx="135.45" cy="73.67" rx="5.97" ry="13.53"/><path class="cls-4" d="M97.64,68.1c0-10.63,4.71-22.32,9.55-26.58,1.84-1.62,1.86-2.08,4-2.08,3.44,0,5,1.41,7.16,5.21,3.27,5.63,7.39,15.77,7.16,23.45"/><path class="cls-4" d="M126.3,73.67a61.9,61.9,0,0,1,3.18-15.92c.36-1,.89-2.36,1.59-4A28.71,28.71,0,0,1,133.46,49a10.41,10.41,0,0,1,4-4,8.12,8.12,0,0,1,2.77-.79,9.75,9.75,0,0,1,2,0c3,.36,5.89,4.13,6.37,4.77a26.19,26.19,0,0,1,4,8,77.19,77.19,0,0,1,3.18,16.72"/><circle class="cls-3" cx="102.82" cy="78.84" r="1.19"/><circle class="cls-3" cx="133.06" cy="79.64" r="1.19"/><path class="cls-5" d="M97.33,25.38c9,2.25,14.61,6,27.29,17"/><path class="cls-5" d="M130.23,45.55c6.61-13.39,20-13.38,28.76-14.21"/></svg>
