<svg id="Layer_1" data-name="Layer 1" xmlns="http://www.w3.org/2000/svg" viewBox="0 0 1920 1080"><defs><style>.cls-1{fill:#fff;}.cls-2{fill:#a09f9f;}.cls-3,.cls-8{font-size:56px;font-family:AzoSansUber-Regular, Azo Sans Uber;}.cls-4{letter-spacing:-0.03em;}.cls-5{letter-spacing:-0.13em;}.cls-6{letter-spacing:-0.15em;}.cls-7{letter-spacing:-0.03em;}.cls-8{fill:#f2f2f2;}.cls-9{fill:#d3d3d3;opacity:0.72;}</style></defs><title>forgrund_startside</title><path d="M791.28,651.39H877l83,217.8H863.18l-7.52-28.57H805.72l-8.42,28.57h-89Zm49.94,134.47-9.62-44.22H831l-9.62,44.22Z"/><path d="M975.1,651.39h89.35c44.82,0,105.89,11.13,105.89,69.19,0,23.47-11.13,40.31-27.37,51.75l49.64,96.86h-94.17L1066,797.6h-1.2v71.59H975.1Zm96.27,96.27c14.14,0,20.46-7.52,20.46-16.85s-6.62-16.55-20.46-16.55h-6.62v33.4Z"/><path d="M1195.62,780.75c29.18,19,58.66,25.87,71.6,25.87,9,0,11.13-3.61,11.13-7.22,0-4.21-2.71-6-6.62-6.92-10.53-2.71-40.91-6-63.17-25.57-11.43-10.23-19.25-24.37-19.25-45.42,0-43.63,33.69-73.41,88.74-73.41,26.48,0,57.76,6.92,77.62,17.15v71.3c-28.28-14.14-54.76-19.26-65.89-19.26-8.72,0-11.13,3.31-11.13,6.62,0,4.51,3.31,6.32,6.92,7.52,9,2.71,39.11,6.32,60.47,23.17,14.74,12,22,27.37,22,46.93,0,41.81-33.69,71-90.85,71-27.38,0-60.17-6.62-81.53-17.75Z"/><path d="M665.35,633h37.17l19.26,24.34L740.36,633h36.1v96.8H736.62V682.61h-.27L719.1,705.34l-17.65-22.73h-.26V729.8H665.35Z"/><path d="M617.57,719.23H690V832.66h54.41v62.42H617.57Z"/><path class="cls-1" d="M780.28,636.39H866l83,217.8H852.18l-7.52-28.57H794.72l-8.42,28.57h-89Zm49.94,134.47-9.62-44.22H820l-9.62,44.22Z"/><path class="cls-1" d="M964.1,636.39h89.35c44.82,0,105.89,11.13,105.89,69.19,0,23.47-11.13,40.31-27.37,51.75l49.64,96.86h-94.17L1055,782.6h-1.2v71.59H964.1Zm96.27,96.27c14.14,0,20.46-7.52,20.46-16.85s-6.62-16.55-20.46-16.55h-6.62v33.4Z"/><path class="cls-1" d="M1184.62,765.75c29.18,19,58.66,25.87,71.6,25.87,9,0,11.13-3.61,11.13-7.22,0-4.21-2.71-6-6.62-6.92-10.53-2.71-40.91-6-63.17-25.57-11.43-10.23-19.25-24.37-19.25-45.42,0-43.63,33.69-73.41,88.74-73.41,26.48,0,57.76,6.92,77.62,17.15v71.3c-28.28-14.14-54.76-19.26-65.89-19.26-8.72,0-11.13,3.31-11.13,6.62,0,4.51,3.31,6.32,6.92,7.52,9,2.71,39.11,6.32,60.47,23.17,14.74,12,22,27.37,22,46.93,0,41.81-33.69,71-90.85,71-27.38,0-60.17-6.62-81.53-17.75Z"/><path class="cls-1" d="M654.35,618h37.17l19.26,24.34L729.36,618h36.1v96.8H725.62V667.61h-.27L708.1,690.34l-17.65-22.73h-.26V714.8H654.35Z"/><path class="cls-1" d="M606.57,704.23H679V817.66h54.41v62.42H606.57Z"/><rect x="653" y="243" width="650" height="129" rx="56.24"/><rect class="cls-2" x="646" y="233" width="650" height="129" rx="56.24"/><rect x="649" y="405" width="650" height="129" rx="56.24"/><rect class="cls-2" x="642" y="395" width="650" height="129" rx="56.24"/><text class="cls-3" transform="translate(734.72 323.52)"><tspan class="cls-4">s</tspan><tspan class="cls-5" x="33.88" y="0">t</tspan><tspan x="69.72" y="0">a</tspan><tspan class="cls-6" x="117.26" y="0">r</tspan><tspan class="cls-7" x="157.42" y="0">t</tspan><tspan x="198.69" y="0" xml:space="preserve"> spille</tspan><tspan class="cls-4" x="413.72" y="0">t</tspan></text><text class="cls-8" transform="translate(731.72 320.52)"><tspan class="cls-4">s</tspan><tspan class="cls-5" x="33.88" y="0">t</tspan><tspan x="69.72" y="0">a</tspan><tspan class="cls-6" x="117.26" y="0">r</tspan><tspan class="cls-7" x="157.42" y="0">t</tspan><tspan x="198.69" y="0" xml:space="preserve"> spille</tspan><tspan class="cls-4" x="413.72" y="0">t</tspan></text><text class="cls-3" transform="translate(728.88 489.92)">Menu/settings</text><text class="cls-8" transform="translate(726.88 485.92)">Menu/settings</text><path class="cls-9" d="M1879,100.39a4.08,4.08,0,0,0-4.07-4.07h-7.25a62.07,62.07,0,0,0-7.77-18.82l5.21-5.22a4.08,4.08,0,0,0,0-5.75l-14.39-14.39a4.09,4.09,0,0,0-5.76,0l-5.27,5.27a62.13,62.13,0,0,0-18.76-7.64V42.29a4.08,4.08,0,0,0-4.07-4.07h-20.35a4.08,4.08,0,0,0-4.07,4.07V50a61.76,61.76,0,0,0-18.24,7.63l-5.33-5.33a4.07,4.07,0,0,0-5.76,0l-14.38,14.38a4.07,4.07,0,0,0,0,5.76l5.37,5.37a61.82,61.82,0,0,0-7.61,18.56h-7.21a4.08,4.08,0,0,0-4.07,4.07v20.34a4.08,4.08,0,0,0,4.07,4.07h7.28a62,62,0,0,0,7.7,18.52l-4.49,4.5a4.08,4.08,0,0,0,0,5.75L1764.17,168a4.08,4.08,0,0,0,5.75,0l4.55-4.55a62.06,62.06,0,0,0,18,7.46v7.06a4.08,4.08,0,0,0,4.07,4.07h20.35a4.08,4.08,0,0,0,4.07-4.07v-6.88a62.08,62.08,0,0,0,19.39-8l5,5a4.06,4.06,0,0,0,5.75,0l14.39-14.38a4.09,4.09,0,0,0,0-5.76l-5.22-5.22a61.89,61.89,0,0,0,7.32-17.9h7.32a4.08,4.08,0,0,0,4.07-4.07ZM1806.83,135a24.93,24.93,0,1,1,24.92-24.92A24.95,24.95,0,0,1,1806.83,135Z"/></svg>
