<svg id="Layer_1" data-name="Layer 1" xmlns="http://www.w3.org/2000/svg" viewBox="0 0 1090 140"><defs><style>.cls-1{fill:#fff;}</style></defs><title>gameover tekst</title><path d="M16.77,76.5c0-36.41,29.89-63.29,72.15-63.29,16,0,30.72,3.84,40.24,8.68V63.31c-9.68-4.18-24.71-8.19-35.9-8.19-17.71,0-26.89,10-26.89,23.05,0,14.2,11.19,22.72,23.38,22.72a16.36,16.36,0,0,0,5-.67V94h-12V67h49.43v59.79c-8.85,5.51-24.55,11-44.42,11C44.16,137.79,16.77,111.24,16.77,76.5Z"/><path d="M180.93,15h47.6L274.62,136H220.84l-4.17-15.87H189L184.27,136H134.84ZM208.65,89.7l-5.34-24.55H203L197.63,89.7Z"/><path d="M283,15h46.43l24.05,30.4L376.66,15h45.09V136H372V77h-.33L350.1,105.39,328.06,77h-.34v59H283Z"/><path d="M436.44,15h87V55.46H486.2V62h30.07V90.7H486.2v6.84h39.59V136H436.44Z"/><path d="M653,13.21c37.91,0,67.48,27.22,67.48,62.29S690.94,137.79,653,137.79s-67.47-27.22-67.47-62.29S615.12,13.21,653,13.21ZM653,95a18.71,18.71,0,1,0-18.7-18.71A18.68,18.68,0,0,0,653,95Z"/><path d="M714.82,15H768.6l17.87,64.13h.33l19-64.13h48.6L808.18,136h-47.1Z"/><path d="M862.78,15h87V55.46H912.55V62h30.06V90.7H912.55v6.84h39.58V136H862.78Z"/><path d="M964.49,15h49.6c24.88,0,58.78,6.18,58.78,38.41,0,13-6.18,22.38-15.19,28.73L1085.23,136H1033l-18-39.75h-.67V136H964.49Zm53.44,53.45c7.85,0,11.35-4.18,11.35-9.36S1025.61,50,1017.93,50h-3.68V68.49Z"/><path class="cls-1" d="M4.77,65.5c0-36.41,29.89-63.29,72.15-63.29,16,0,30.72,3.84,40.24,8.68V52.31c-9.68-4.18-24.71-8.19-35.9-8.19-17.71,0-26.89,10-26.89,23.05,0,14.2,11.19,22.72,23.38,22.72a16.36,16.36,0,0,0,5-.67V83h-12V56h49.43v59.79c-8.85,5.51-24.55,11-44.42,11C32.16,126.79,4.77,100.24,4.77,65.5Z"/><path class="cls-1" d="M168.93,4h47.6L262.62,125H208.84l-4.17-15.87H177L172.27,125H122.84ZM196.65,78.7l-5.34-24.55H191L185.63,78.7Z"/><path class="cls-1" d="M271,4h46.43l24.05,30.4L364.66,4h45.09V125H360V66h-.33L338.1,94.39,316.06,66h-.34v59H271Z"/><path class="cls-1" d="M424.44,4h87V44.46H474.2V51h30.07V79.7H474.2v6.84h39.59V125H424.44Z"/><path class="cls-1" d="M641,2.21c37.91,0,67.48,27.22,67.48,62.29S678.94,126.79,641,126.79,573.56,99.57,573.56,64.5,603.12,2.21,641,2.21ZM641,84a18.71,18.71,0,1,0-18.7-18.71A18.68,18.68,0,0,0,641,84Z"/><path class="cls-1" d="M702.82,4H756.6l17.87,64.13h.33L793.84,4h48.6L796.18,125h-47.1Z"/><path class="cls-1" d="M850.78,4h87V44.46H900.55V51h30.06V79.7H900.55v6.84h39.58V125H850.78Z"/><path class="cls-1" d="M952.49,4h49.6c24.88,0,58.78,6.18,58.78,38.41,0,13-6.18,22.38-15.19,28.73L1073.23,125H1021l-18-39.75h-.67V125H952.49Zm53.44,53.45c7.85,0,11.35-4.18,11.35-9.36S1013.61,39,1005.93,39h-3.68V57.49Z"/></svg>