<svg id="Layer_1" data-name="Layer 1" xmlns="http://www.w3.org/2000/svg" viewBox="0 0 180 790"><defs><style>.cls-1{fill:#2671f7;}.cls-2{fill:#d6d6d6;}.cls-3,.cls-4{fill:none;stroke:#000;stroke-miterlimit:10;}.cls-3{stroke-width:8px;}.cls-4{stroke-width:4px;}.cls-5{fill:#2e2f30;}</style></defs><title>ilt_5</title><rect class="cls-1" x="6" y="70.5" width="169" height="715" rx="45.38"/><path class="cls-2" d="M140,222.5l-92-3-42-17v157l.17.05c2.9,18.34,44.91,24.95,84.33,24.95,23.38,0,43.52-2,58.23-5.73,16.76-4.28,25.56-10.75,26.21-19.25l.06,0v-157Z"/><path class="cls-1" d="M90.5,228.5c-40.85,0-84.5-7.09-84.5-27H18c0,.94,2.94,5.24,17.33,9.16,13.78,3.77,33.37,5.84,55.17,5.84,22.08,0,41.71-1.9,55.27-5.36,14.31-3.65,17.23-7.74,17.23-8.64h12c0,9-8.84,15.82-26.27,20.27C134,226.52,113.88,228.5,90.5,228.5Z"/><ellipse class="cls-3" cx="70" cy="303" rx="31" ry="49.5"/><path class="cls-4" d="M173,688.5c0,4.42-33.5,8-81,8s-84-3.58-84-8"/><path class="cls-4" d="M173,545.5c0,4.42-33.5,8-81,8s-84-3.58-84-8"/><path class="cls-4" d="M173,402.5c0,4.42-33.5,8-81,8s-84-3.58-84-8"/><path class="cls-4" d="M172,198.5c0,4.42-33.5,8-81,8s-84-3.58-84-8"/><rect x="66" y="16.5" width="48" height="67" rx="12"/><path d="M157,21.72c2.21,14.52-24.71,14.69-66.5,14.22C51,35.5,20.93,36.27,24,21.72,27,7.5,53.77,7.5,90.5,7.5,148,7.5,155.82,14,157,21.72Z"/><rect class="cls-5" x="70" y="4.5" width="39" height="25" rx="12"/></svg>
