<svg id="Layer_1" data-name="Layer 1" xmlns="http://www.w3.org/2000/svg" viewBox="0 0 180 790"><defs><style>.cls-1{fill:#7daef4;}.cls-2{fill:#2671f7;}.cls-3{fill:#d6d6d6;}.cls-4,.cls-6{fill:none;stroke:#000;stroke-miterlimit:10;}.cls-4{stroke-width:8px;}.cls-5{font-size:61px;font-family:MyriadPro-Regular, Myriad Pro;}.cls-6{stroke-width:4px;}.cls-7{fill:#2e2f30;}</style></defs><title>ilt_1</title><rect class="cls-1" x="4.5" y="70.5" width="169" height="715" rx="45.38"/><path class="cls-2" d="M4.21,696.5H173.79a0,0,0,0,1,0,0V743a42.47,42.47,0,0,1-42.47,42.47H47.13A42.92,42.92,0,0,1,4.21,742.58V696.5A0,0,0,0,1,4.21,696.5Z"/><path class="cls-3" d="M138.5,222.5l-92-3-42-17v157l.17.05C7.57,377.89,49.58,384.5,89,384.5c23.38,0,43.52-2,58.23-5.73,16.76-4.28,25.56-10.75,26.21-19.25l.06,0v-157Z"/><ellipse class="cls-4" cx="68.5" cy="303" rx="31" ry="49.5"/><text class="cls-5" transform="translate(105.5 357.81)">2</text><path class="cls-6" d="M171.5,688.5c0,4.42-33.5,8-81,8s-84-3.58-84-8"/><path class="cls-6" d="M171.5,545.5c0,4.42-33.5,8-81,8s-84-3.58-84-8"/><path class="cls-6" d="M171.5,402.5c0,4.42-33.5,8-81,8s-84-3.58-84-8"/><path class="cls-1" d="M89,228.5c-40.85,0-84.5-7.09-84.5-27h12c0,.94,2.94,5.24,17.33,9.16C47.61,214.43,67.2,216.5,89,216.5c22.08,0,41.71-1.9,55.27-5.36,14.31-3.65,17.23-7.74,17.23-8.64h12c0,9-8.84,15.82-26.27,20.27C132.52,226.52,112.38,228.5,89,228.5Z"/><path class="cls-6" d="M170.5,198.5c0,4.42-33.5,8-81,8s-84-3.58-84-8"/><rect x="64.5" y="16.5" width="48" height="67" rx="12"/><path d="M155.5,21.72c2.21,14.52-24.71,14.69-66.5,14.22-39.5-.44-69.57.33-66.5-14.22C25.5,7.5,52.27,7.5,89,7.5,146.5,7.5,154.32,14,155.5,21.72Z"/><rect class="cls-7" x="68.5" y="4.5" width="39" height="25" rx="12"/></svg>
