<svg id="Layer_1" data-name="Layer 1" xmlns="http://www.w3.org/2000/svg" viewBox="0 0 1140 1010"><defs><style>.cls-1{fill:#5e5e5e;}.cls-2{fill:#2671f7;}.cls-3{fill:#2e2f30;}.cls-4{fill:#d6d6d6;}.cls-5,.cls-6{fill:none;stroke-miterlimit:10;}.cls-5{stroke:#2671f7;stroke-width:12px;}.cls-6{stroke:#000;stroke-width:8px;}.cls-7{font-size:33.69px;font-family:MyriadPro-Regular, Myriad Pro;}.cls-8{fill:#afafaf;}.cls-9{fill:#c6c3c2;}.cls-10{fill:#aac0ff;opacity:0.72;}.cls-11{fill:#dbdbdb;}.cls-12{fill:#fffdfd;}.cls-13{fill:#bf84a7;}.cls-14{fill:#3d2c33;}.cls-15{fill:#505151;}</style></defs><title>Lars</title><path class="cls-1" d="M579.25,617.5A88.09,88.09,0,0,1,463.3,572.3l18.31-8a68,68,0,0,0,124.53-54.67l18.31-8A88.1,88.1,0,0,1,579.25,617.5Z"/><rect class="cls-2" x="509.88" y="152.12" width="93.34" height="394.91" rx="45.38" transform="translate(-77.45 176.37) rotate(-16.85)"/><rect x="482.5" y="131.34" width="26.51" height="37.01" rx="12" transform="translate(-22.15 150.16) rotate(-16.85)"/><path d="M526.65,124.17c3.49,7.32-10.71,11.72-32.88,18.16-20.95,6.1-36.72,11.32-37.43,3.14-.69-8,13.46-12.29,32.88-18.17C519.61,118.09,524.78,120.25,526.65,124.17Z"/><rect class="cls-3" x="479.44" y="125.58" width="21.54" height="13.81" rx="6.9" transform="translate(-17.36 147.81) rotate(-16.85)"/><path class="cls-4" d="M549.81,233,500.7,246.17l-24.93-2.26,25.14,83h.1c4.47,9.23,27.74,6,48.58-.32,12.36-3.74,22.68-8,29.86-12.35,8.18-4.94,11.79-9.77,10.77-14.37l0,0-25.14-83Z"/><path class="cls-5" d="M561.94,217.81c1.9,6.28-13.63,15.67-38.3,23.14s-42.95,7.75-44.85,1.47"/><ellipse class="cls-6" cx="525.7" cy="286.79" rx="17.12" ry="27.34" transform="translate(-60.57 164.72) rotate(-16.85)"/><text class="cls-7" transform="translate(554.03 309.83) rotate(-16.85)">2</text><path class="cls-8" d="M547.77,392.42c37.1,188.24-9.76,251.67-203.6,289.88S52.28,707.19,15.18,519,39.76,166.32,233.61,128.11,510.67,204.19,547.77,392.42Z"/><ellipse class="cls-9" cx="235.93" cy="219.29" rx="219.95" ry="85.57" transform="translate(-46.05 63.61) rotate(-14)"/><rect class="cls-8" x="137.56" y="12.21" width="150" height="210" rx="26.22" transform="translate(-14.35 30.99) rotate(-8.07)"/><rect class="cls-10" x="140.87" y="48.93" width="116.72" height="163.41" rx="26.22" transform="translate(-16.36 29.25) rotate(-8.07)"/><ellipse class="cls-9" cx="199.56" cy="23.71" rx="72" ry="18.5" transform="translate(-1.35 28.24) rotate(-8.07)"/><rect class="cls-8" x="218.56" y="679.21" width="95" height="234" rx="12"/><path class="cls-8" d="M529.77,837.94,448.3,769.28l.14,0-55-120.69a12,12,0,0,0-15.9-5.95L312.94,672A12,12,0,0,0,307,687.92l53,116.3-.26.1,23.42,34.17-.06.07.25.21.79,1.15.25-.28,84.19,71a12,12,0,0,0,16.91-1.45l45.75-54.29A12,12,0,0,0,529.77,837.94Zm-88.35-65.87,4.25-1.72-.07.07Z"/><ellipse class="cls-11" cx="529.06" cy="900.21" rx="63.5" ry="94"/><ellipse class="cls-11" cx="504.33" cy="948.83" rx="73.01" ry="54.1" transform="translate(-68.02 39.41) rotate(-4.19)"/><path class="cls-11" d="M66.56,924.21c0,34.8,88,83,157,83s107.84-28.45,112-63c13-108-59.36-18.33-112-63C190.56,853.21,66.56,889.42,66.56,924.21Z"/><ellipse class="cls-12" cx="170.56" cy="149.71" rx="16" ry="35.5" transform="translate(-19.32 25.42) rotate(-8.07)"/><ellipse class="cls-12" cx="216.56" cy="143.71" rx="16" ry="35.5" transform="translate(-18.03 31.81) rotate(-8.07)"/><path class="cls-13" d="M179.56,194.21c-1.89,10.7,7.57,11.15,17,6,11-6,7.4-1.64,9-7s2.3-5.93-8-9S180.53,188.71,179.56,194.21Z"/><ellipse class="cls-14" cx="194.56" cy="200.21" rx="4" ry="1" transform="translate(-65.1 97.68) rotate(-24.27)"/><ellipse class="cls-14" cx="187.56" cy="202.21" rx="4" ry="1" transform="translate(-18.67 19.08) rotate(-5.55)"/><ellipse cx="170.06" cy="164.71" rx="7.5" ry="11.5" transform="translate(-26.13 32.2) rotate(-10.05)"/><ellipse cx="216.06" cy="158.71" rx="7.5" ry="11.5" transform="translate(-24.38 40.14) rotate(-10.05)"/><path d="M243.6,202.1c6.53-8,7-18.89,6.4-22.8l-1.44-1.09h-1l-1.14,1.31-.63,1.42c2.15,5.22.27,11.83-5.29,18.63a53.24,53.24,0,0,1-9.71,9l7.57-1A52.71,52.71,0,0,0,243.6,202.1Z"/><path d="M141.63,93.56a.53.53,0,0,1-.64-.35.54.54,0,0,1,.27-.71,17,17,0,0,0,3.88-2.6A25.52,25.52,0,0,1,153.36,85a62,62,0,0,0,7-2.89,27.94,27.94,0,0,1,7.29-2.68.55.55,0,0,1,.6.47.52.52,0,0,1-.4.63,27.36,27.36,0,0,0-7,2.6,61,61,0,0,1-7.07,2.93,24.67,24.67,0,0,0-7.92,4.71,17.82,17.82,0,0,1-4.12,2.74Z"/><path d="M189.85,77.85a.52.52,0,1,1,.09-1,21.27,21.27,0,0,0,5-.6,32.63,32.63,0,0,1,10.35-.74,76.74,76.74,0,0,0,8.24.41,36,36,0,0,1,8.48.71.53.53,0,0,1,.39.64.54.54,0,0,1-.67.36,35,35,0,0,0-8.2-.67,79.57,79.57,0,0,1-8.36-.42,31,31,0,0,0-10,.73,22.23,22.23,0,0,1-5.33.62Z"/><path class="cls-15" d="M389.25,400.92c44.54,97.65,64.15,184.34,43.8,193.62s-72.95-62.36-117.49-160-19.42-82.68.93-92S344.71,303.26,389.25,400.92Z"/><ellipse class="cls-11" cx="384.56" cy="583.71" rx="30.5" ry="23" transform="translate(-314.41 590.16) rotate(-57.15)"/><ellipse class="cls-11" cx="406.44" cy="607.76" rx="48.11" ry="17.4" transform="translate(-234.54 959.5) rotate(-84.98)"/><ellipse class="cls-11" cx="431.76" cy="603.94" rx="12.58" ry="47.9" transform="translate(-155.26 149.45) rotate(-16.69)"/><ellipse class="cls-11" cx="440.94" cy="592" rx="12.58" ry="38.84" transform="translate(-277.29 421.6) rotate(-39.97)"/><path class="cls-11" d="M441.55,567.23c1.48,13.16-13.65,24-30.49,24s-30.5-10.74-30.5-24,6.31-15.64,30.5-24C442.23,532.5,437.35,529.69,441.55,567.23Z"/></svg>
