<svg id="Layer_1" data-name="Layer 1" xmlns="http://www.w3.org/2000/svg" viewBox="0 0 1280 120"><defs><style>.cls-1{fill:#fff;}</style></defs><title>levelcompletetekst</title><path d="M9.36,15.91H50.18v64H80.87v35.21H9.36Z"/><path d="M91.56,15.91h71.37V49.06H132.38V54.4H157V78H132.38v5.61h32.47v31.51H91.56Z"/><path d="M169.78,15.91h44.11l14.66,52.6h.28l15.61-52.6h39.87l-37.95,99.18H207.73Z"/><path d="M291.16,15.91h71.38V49.06H332V54.4h24.66V78H332v5.61h32.46v31.51H291.16Z"/><path d="M374.59,15.91h40.83v64H446.1v35.21H374.59Z"/><path d="M553.51,14.4c11.23,0,22.88,2.47,29.18,5.76V56.73c-6.85-3.42-15.48-6.3-24.66-6.3-14,0-21.51,6.71-21.51,15.89S544.06,82.08,558,82.08a53.31,53.31,0,0,0,25.21-6.58v34.93c-6.44,3.43-18.36,6.17-30.14,6.17C520,116.6,495.7,95,495.7,65.5S519.81,14.4,553.51,14.4Z"/><path d="M646.26,14.4c31.1,0,55.34,22.33,55.34,51.1s-24.24,51.1-55.34,51.1-55.35-22.33-55.35-51.1S615.16,14.4,646.26,14.4Zm0,67.13a15.35,15.35,0,1,0-15.34-15.34A15.32,15.32,0,0,0,646.26,81.53Z"/><path d="M711.47,15.91h38.09l19.72,24.93,19.05-24.93h37v99.18H784.49V66.73h-.27L766.54,90,748.46,66.73h-.27v48.36H711.47Z"/><path d="M837.37,15.91h37.54c23.84,0,50.55,6.85,50.55,35.21,0,25.48-21.37,35.75-45.89,35.75H878.2v28.22H837.37Zm41.92,45.75c7,0,10.28-3.69,10.28-8.35S886.15,45,879.29,45H878.2V61.66Z"/><path d="M934.23,15.91h40.83v64h30.68v35.21H934.23Z"/><path d="M1016.43,15.91h71.38V49.06h-30.55V54.4h24.65V78h-24.65v5.61h32.46v31.51h-73.29Z"/><path d="M1126.17,49.61h-27.68V15.91h96.17v33.7H1167v65.48h-40.82Z"/><path d="M1205.35,15.91h71.38V49.06h-30.55V54.4h24.65V78h-24.65v5.61h32.46v31.51h-73.29Z"/><path class="cls-1" d="M1.36,4.91H42.18v64H72.87v35.21H1.36Z"/><path class="cls-1" d="M83.56,4.91h71.37V38.06H124.38V43.4H149V67H124.38v5.61h32.47v31.51H83.56Z"/><path class="cls-1" d="M161.78,4.91h44.11l14.66,52.6h.28l15.61-52.6h39.87l-37.95,99.18H199.73Z"/><path class="cls-1" d="M283.16,4.91h71.38V38.06H324V43.4h24.66V67H324v5.61h32.46v31.51H283.16Z"/><path class="cls-1" d="M366.59,4.91h40.83v64H438.1v35.21H366.59Z"/><path class="cls-1" d="M545.51,3.4c11.23,0,22.88,2.47,29.18,5.76V45.73c-6.85-3.42-15.48-6.3-24.66-6.3-14,0-21.51,6.71-21.51,15.89S536.06,71.08,550,71.08a53.31,53.31,0,0,0,25.21-6.58V99.43c-6.44,3.43-18.36,6.17-30.14,6.17C512,105.6,487.7,84,487.7,54.5S511.81,3.4,545.51,3.4Z"/><path class="cls-1" d="M638.26,3.4c31.1,0,55.34,22.33,55.34,51.1s-24.24,51.1-55.34,51.1-55.35-22.33-55.35-51.1S607.16,3.4,638.26,3.4Zm0,67.13a15.35,15.35,0,1,0-15.34-15.34A15.32,15.32,0,0,0,638.26,70.53Z"/><path class="cls-1" d="M703.47,4.91h38.09l19.72,24.93L780.33,4.91h37v99.18H776.49V55.73h-.27L758.54,79,740.46,55.73h-.27v48.36H703.47Z"/><path class="cls-1" d="M829.37,4.91h37.54c23.84,0,50.55,6.85,50.55,35.21,0,25.48-21.37,35.75-45.89,35.75H870.2v28.22H829.37Zm41.92,45.75c7,0,10.28-3.69,10.28-8.35S878.15,34,871.29,34H870.2V50.66Z"/><path class="cls-1" d="M926.23,4.91h40.83v64h30.68v35.21H926.23Z"/><path class="cls-1" d="M1008.43,4.91h71.38V38.06h-30.55V43.4h24.65V67h-24.65v5.61h32.46v31.51h-73.29Z"/><path class="cls-1" d="M1118.17,38.61h-27.68V4.91h96.17v33.7H1159v65.48h-40.82Z"/><path class="cls-1" d="M1197.35,4.91h71.38V38.06h-30.55V43.4h24.65V67h-24.65v5.61h32.46v31.51h-73.29Z"/></svg>
