<svg id="Layer_1" data-name="Layer 1" xmlns="http://www.w3.org/2000/svg" viewBox="0 0 1930 1000"><defs><style>.cls-1{fill:#ed4048;}.cls-1,.cls-2{stroke:#000;stroke-miterlimit:10;}.cls-2{fill:#b0381f;}.cls-3{fill:#ea543b;}.cls-4{fill:#f22;}.cls-5{fill:#5b5b5b;}.cls-6{fill:#c4c4c4;}.cls-7{fill:#aef7ff;}.cls-8{fill:#5e5e5e;}.cls-9{fill:#2671f7;}.cls-10{fill:#2e2f30;}.cls-11{fill:#d6d6d6;}.cls-12{font-size:5.75px;font-family:MyriadPro-Regular, Myriad Pro;}.cls-13{fill:#afafaf;}.cls-14{fill:#c6c3c2;}.cls-15{fill:#aac0ff;opacity:0.72;}.cls-16{fill:#dbdbdb;}.cls-17{fill:#fffdfd;}.cls-18{fill:#bf84a7;}.cls-19{fill:#3d2c33;}.cls-20{fill:#505151;}</style></defs><title>mellemgrund_spil</title><line class="cls-1" x1="4.25" y1="995.28" x2="4.25" y2="760.14"/><path class="cls-2" d="M1925.25,994.28V757.77c-232.59-157.42-576-257-959-257-384.14,0-728.38,100.15-961,258.36V994.28Z"/><ellipse class="cls-3" cx="240.25" cy="685.78" rx="78.5" ry="34" transform="translate(-219.62 123.17) rotate(-19.96)"/><ellipse class="cls-3" cx="390.25" cy="908.28" rx="51.5" ry="12.5"/><ellipse class="cls-3" cx="878.75" cy="862.28" rx="51" ry="33.5"/><ellipse class="cls-3" cx="1378.25" cy="920.78" rx="31" ry="118.5" transform="translate(92.39 1966.71) rotate(-72.87)"/><ellipse class="cls-3" cx="1399.25" cy="685.78" rx="28" ry="46.5" transform="translate(331.78 1820.99) rotate(-72.87)"/><ellipse class="cls-3" cx="1756.08" cy="828.52" rx="48.84" ry="71.81" transform="translate(160.52 1935.07) rotate(-60)"/><ellipse class="cls-3" cx="1154.75" cy="657.78" rx="40" ry="50" transform="translate(413.74 1760.97) rotate(-85.78)"/><ellipse class="cls-3" cx="562.25" cy="639.28" rx="126.5" ry="42.5" transform="translate(-128.31 141.35) rotate(-12.87)"/><path class="cls-4" d="M280.29,492.32a6.45,6.45,0,0,1-7.9-4.53l-11.54-42.56c-25.77,21.91-34.18,67.24-34.72,94.19-1.2,59.14,33.53,125.6,63.81,124.12,14.56-.71-3.64-18.43-7.38-44.56-5.21-36.37-.32-85,.7-90.28a25.9,25.9,0,0,1,2.33-6.14,281.34,281.34,0,0,1-3.77-30.65Z"/><path class="cls-4" d="M475.26,471.88c-14.76-24.1-47.19-61.27-82.4-64.4l12,44.39a6.46,6.46,0,0,1-3.75,7.63,278.75,278.75,0,0,1,11.37,26.06,34.14,34.14,0,0,1,8,5.92c3.58,4.09,32.33,43.55,46.21,77.57,10,24.44,3.2,48.92,16.13,42.18C509.77,597.21,506.17,522.32,475.26,471.88Z"/><path class="cls-5" d="M372.08,467.44l-59.14,16c-11,13.75-22.44,29.21-27.35,39.09,1.58,8.89,3.6,18,6.09,27.14,13.54,50,29.29,60,48.33,58.27a7.27,7.27,0,0,1,5.29-6.07l60.13-16.3a7.28,7.28,0,0,1,7.19,2c15.32-8.54,22.05-25.91,9.23-73.23-2.72-10-5.86-19.68-9.34-28.86C402.78,479.86,386.9,473.15,372.08,467.44Z"/><path class="cls-5" d="M312.94,483.47l-31.12,8.44a281.34,281.34,0,0,0,3.77,30.65C290.5,512.68,302,497.22,312.94,483.47Z"/><path class="cls-5" d="M400.35,459.77l-28.27,7.67c14.82,5.71,30.7,12.42,40.43,18.12a278.75,278.75,0,0,0-11.37-26.06A4.89,4.89,0,0,1,400.35,459.77Z"/><path class="cls-5" d="M375.17,598.82C362.3,602.31,350.64,607,340,608a7.18,7.18,0,0,0,.19,2.83l3.16,11.68a7.28,7.28,0,0,0,8.91,5.1l60.12-16.3a7.27,7.27,0,0,0,5.1-8.9l-3.16-11.67a7.16,7.16,0,0,0-1.71-3.06C402.73,593.16,389.27,595,375.17,598.82Z"/><path class="cls-5" d="M405.43,585.6,345.3,601.9A7.27,7.27,0,0,0,340,608c10.63-1,22.29-5.66,35.16-9.15,14.1-3.83,27.56-5.66,37.45-11.17A7.28,7.28,0,0,0,405.43,585.6Z"/><path class="cls-6" d="M286.14,433.48c5.87-22.6,16.92-38.19,32.41-42.39s33,3.74,49.58,20.42a55.48,55.48,0,0,1,8.31-2.89,51,51,0,0,1,16.42-1.14l-13.82-51-132.5,35.92,14.31,52.79a51.94,51.94,0,0,1,18.63-10.32A51.1,51.1,0,0,1,286.14,433.48Z"/><path class="cls-6" d="M280.29,492.32l1.53-.41c-1.46-22.05.08-42.08,4.32-58.43a51.1,51.1,0,0,0-6.66,1.43,51.94,51.94,0,0,0-18.63,10.32l11.54,42.56A6.45,6.45,0,0,0,280.29,492.32Z"/><path class="cls-6" d="M368.13,411.51c11.84,11.94,23.19,28.36,33,48a6.46,6.46,0,0,0,3.75-7.63l-12-44.39a51,51,0,0,0-16.42,1.14A55.48,55.48,0,0,0,368.13,411.51Z"/><path class="cls-6" d="M324.73,440.74c4.41,2.89,7.74,4.8,10.07,6.26,1.27-2.44,3.18-5.76,5.53-10.49,6.92-13.95,19.45-21.39,27.8-25-16.54-16.68-34-24.63-49.58-20.42S292,410.88,286.14,433.48C294.9,432.14,310.71,431.54,324.73,440.74Z"/><path class="cls-6" d="M337,455c-1.51,1.85-3.86,4.33-7,8-4.64,5.39-10.75,12.69-17,20.55l59.14-16c-9.38-3.62-18.34-6.83-25.06-9.14C342.47,456.74,339.19,455.78,337,455Z"/><path class="cls-6" d="M337,455c-4.66-1.74-4.77-2.95-2.15-7.95-2.33-1.46-5.66-3.37-10.07-6.26-14-9.2-29.83-8.6-38.59-7.26-4.24,16.35-5.78,36.38-4.32,58.43l31.12-8.44c6.27-7.86,12.38-15.16,17-20.55C333.09,459.28,335.44,456.8,337,455Z"/><path class="cls-6" d="M340.33,436.51c-2.35,4.73-4.26,8.05-5.53,10.49,4.78,3,5.3,4.09,2.15,7.95,2.24.83,5.52,1.79,10.07,3.35,6.72,2.31,15.68,5.52,25.06,9.14l28.27-7.67a4.89,4.89,0,0,0,.79-.27c-9.82-19.63-21.17-36.05-33-48C359.78,415.12,347.25,422.56,340.33,436.51Z"/><path class="cls-6" d="M337,455c3.15-3.86,2.63-4.95-2.15-7.95C332.18,452,332.29,453.21,337,455Z"/><path class="cls-6" d="M411.49,130.81l-.25,0-51.53-126-83.4,107.65-.85-.12-31.63,231.9,136,18.56Zm-39.85,149a7.29,7.29,0,0,1-8.18,6.21l-37.15-5.07a7.28,7.28,0,0,1-6.21-8.17L333.91,171.5a7.28,7.28,0,0,1,8.18-6.21l37.15,5.06a7.29,7.29,0,0,1,6.21,8.18Z"/><rect class="cls-7" x="294.41" y="199.64" width="116.72" height="52.01" rx="7.26" transform="translate(81.52 544.69) rotate(-82.23)"/><polygon class="cls-6" points="250.64 398.69 256.07 376.53 272.55 392.31 250.64 398.69"/><polygon class="cls-6" points="269.5 378.71 305.37 386.43 280.75 413.64 269.5 378.71"/><polygon class="cls-6" points="288.31 360.42 325.04 377.01 292.3 400.53 288.31 360.42"/><polygon class="cls-6" points="335.53 360.32 345.86 383.76 320.39 380.98 335.53 360.32"/><polygon class="cls-6" points="264.4 354.45 252.47 337.34 273.25 335.56 264.4 354.45"/><polygon class="cls-6" points="298.08 334.96 321.3 343.45 302.33 359.32 298.08 334.96"/><polygon class="cls-6" points="344.46 362.33 332.87 352.73 346.98 347.49 344.46 362.33"/><polygon class="cls-6" points="269.63 344.64 293.16 348.15 278.36 366.77 269.63 344.64"/><path class="cls-8" d="M107,667a15,15,0,0,0,8.07-19.62l-3.15,1.31a11.59,11.59,0,1,1-21.4,8.93l-3.15,1.31A15,15,0,0,0,107,667Z"/><rect class="cls-9" x="68.65" y="599" width="15.92" height="67.35" rx="7.96" transform="translate(454.8 1145.63) rotate(150.5)"/><rect x="56.86" y="598.51" width="4.52" height="6.31" rx="2.26" transform="matrix(-0.87, 0.49, -0.49, -0.87, 406.82, 1096.24)"/><path d="M52.32,602.45c.49,1.29,2.71.06,6.11-1.92,3.22-1.86,5.72-3.2,4.79-4.25s-3.1.22-6.11,1.92C52.4,600.87,52.06,601.76,52.32,602.45Z"/><rect class="cls-10" x="55.8" y="597.76" width="3.67" height="2.35" rx="1.18" transform="translate(402.69 1091.87) rotate(150.5)"/><path class="cls-11" d="M63,618.12l7.4-4.51,2.65-3.34,7.28,12.87h0c.62,1.64-2.52,4.13-5.75,6a23.83,23.83,0,0,1-5,2.23c-1.58.43-2.6.3-3-.36h0l-7.28-12.87Z"/><path class="cls-9" d="M62.48,619.83a4,4,0,0,1-3.73-2.12l6.45-3.65a3.07,3.07,0,0,0-2.78-1.62,9.26,9.26,0,0,0,2.28-1,8.22,8.22,0,0,0,2-1.41,3,3,0,0,0,0,3.15l6.45-3.64c2.11,3.73-2.08,6.83-4.77,8.36A12.4,12.4,0,0,1,62.48,619.83Z"/><path d="M75,623.64a3.25,3.25,0,0,1-1.53-.41,4.64,4.64,0,0,1-1.77-1.8c-1.07-1.9-.73-4.06.79-4.92a2.9,2.9,0,0,1,2.85.06,4.67,4.67,0,0,1,1.78,1.8c1.07,1.9.72,4.06-.79,4.92A2.7,2.7,0,0,1,75,623.64Z"/><text class="cls-12" transform="matrix(-0.87, 0.49, 0.49, 0.87, 74.03, 625.63)">2</text><text/><path class="cls-13" d="M82.93,636.63c18.86,26.74,32.2,28.43,59.74,9s37.43-33.08,18.57-59.82-46.41-38.47-73.94-19S64.08,609.9,82.93,636.63Z"/><ellipse class="cls-14" cx="98.28" cy="577.78" rx="37.51" ry="14.59" transform="translate(-293.87 142.22) rotate(-32.34)"/><rect class="cls-13" x="75.64" y="544.97" width="25.58" height="35.81" rx="12.79" transform="translate(506.57 949.94) rotate(141.72)"/><rect class="cls-15" x="81.71" y="549.88" width="19.91" height="27.87" rx="9.95" transform="translate(512.9 949.61) rotate(141.72)"/><ellipse class="cls-14" cx="79.43" cy="551.27" rx="8.77" ry="2.25" transform="translate(-324.44 167.74) rotate(-38.28)"/><rect class="cls-13" x="157.82" y="629.45" width="16.2" height="39.9" rx="8.1" transform="translate(750.32 977.63) rotate(133.65)"/><path class="cls-13" d="M141.94,689l12.09.74a2,2,0,0,0,2.16-1.91l1.16-18.74h.06l0-.23v-.06h0l-1.46-6.91,0,0-8.11-20.23a2.06,2.06,0,0,0-2.66-1.14l-11.24,4.51a2,2,0,0,0-1.14,2.66l8.42,21h0L140,686.86A2.06,2.06,0,0,0,141.94,689Zm-.34-20.51h0l.72-.32Z"/><ellipse class="cls-16" cx="147.79" cy="694.1" rx="10.83" ry="16.03" transform="translate(-456.44 321.92) rotate(-46.35)"/><ellipse class="cls-16" cx="156.7" cy="696.77" rx="12.45" ry="9.23" transform="translate(-427.1 285.41) rotate(-42.16)"/><path class="cls-16" d="M205.2,639.86c4.29,4.09-.12,20.62-8.24,29.14s-16.21,10-21,6.4c-14.86-11.11,4.72-9.48,5.41-21.23C181.84,646.8,200.9,635.76,205.2,639.86Z"/><ellipse class="cls-17" cx="97.39" cy="561.52" rx="2.73" ry="6.05" transform="translate(-326.93 181.07) rotate(-38.28)"/><ellipse class="cls-17" cx="91.23" cy="566.49" rx="2.73" ry="6.05" transform="translate(-331.33 178.33) rotate(-38.28)"/><path class="cls-18" d="M101.82,567.87c1.54,1,.48,2.25-1.26,2.8-2,.65-1.08.72-1.92.29s-1-.41-.17-2.05A2.36,2.36,0,0,1,101.82,567.87Z"/><ellipse class="cls-19" cx="100.79" cy="570.43" rx="0.68" ry="0.17" transform="translate(-206.99 79.7) rotate(-22.08)"/><ellipse class="cls-19" cx="101.87" cy="569.8" rx="0.68" ry="0.17" transform="translate(-347.57 205.03) rotate(-40.8)"/><ellipse cx="99.3" cy="563.23" rx="1.28" ry="1.96" transform="translate(-314.15 168.08) rotate(-36.3)"/><ellipse cx="93.14" cy="568.19" rx="1.28" ry="1.96" transform="translate(-318.29 165.4) rotate(-36.3)"/><path d="M95.26,576.7a5.55,5.55,0,0,1-3.57-1.89l0-.31.12-.12h.3l.25.09c.39.88,1.42,1.43,2.92,1.54a9.28,9.28,0,0,0,2.26-.13l-1,.81A9.25,9.25,0,0,1,95.26,576.7Z"/><path d="M93.87,551.34a.09.09,0,0,0,0-.12.09.09,0,0,0-.12-.05,2.66,2.66,0,0,1-.78.17,4.5,4.5,0,0,0-1.57.45,9.46,9.46,0,0,1-1.17.51,4.71,4.71,0,0,0-1.19.59.09.09,0,0,0,0,.13.08.08,0,0,0,.12,0,4.74,4.74,0,0,1,1.15-.56,9.13,9.13,0,0,0,1.19-.53,4.16,4.16,0,0,1,1.52-.42,2.67,2.67,0,0,0,.82-.19Z"/><path d="M86.25,555.44a.08.08,0,0,0,0-.12.09.09,0,0,0-.13,0,3.49,3.49,0,0,1-.66.55,5.38,5.38,0,0,0-1.31,1.19,13.25,13.25,0,0,1-.92,1.07,5.85,5.85,0,0,0-.91,1.13.08.08,0,0,0,0,.12.09.09,0,0,0,.12,0,5.85,5.85,0,0,1,.89-1.09,13.5,13.5,0,0,0,.93-1.08A5.31,5.31,0,0,1,85.55,556a3.85,3.85,0,0,0,.7-.58Z"/><path class="cls-20" d="M102.64,618.08c6.81,17,15.2,29.61,18.74,28.19s.89-16.34-5.92-33.33-7.91-12.13-11.45-10.71S95.84,601.08,102.64,618.08Z"/><ellipse class="cls-16" cx="125.75" cy="639.01" rx="3.92" ry="5.2" transform="translate(-525.51 642.76) rotate(-79.2)"/><ellipse class="cls-16" cx="126.14" cy="644.54" rx="2.97" ry="8.2" transform="translate(-456.09 340.65) rotate(-51.36)"/><ellipse class="cls-16" cx="122.69" cy="647.22" rx="2.14" ry="8.17" transform="translate(-304.18 145.5) rotate(-29.66)"/><ellipse class="cls-16" cx="120.14" cy="646.95" rx="2.14" ry="6.62" transform="translate(-71.09 17.34) rotate(-6.38)"/><path class="cls-16" d="M117,644.11c1.45,1.73,4.56,1.13,6.54-.94s2.27-5,.64-6.59-2.68-1.06-6.55.94C112.64,640.1,112.87,639.17,117,644.11Z"/></svg>
