<svg id="Layer_1" data-name="Layer 1" xmlns="http://www.w3.org/2000/svg" viewBox="0 0 1930 850"><defs><style>.cls-1{fill:#b0381f;stroke:#000;stroke-miterlimit:10;}.cls-2{fill:#ea543b;}.cls-3{fill:#f22;}.cls-4{fill:#5b5b5b;}.cls-5{fill:#c4c4c4;}.cls-6{fill:#aef7ff;}</style></defs><title>mellemgrund_gameover</title><path class="cls-1" d="M1924.55,844.56V608.05c-232.58-157.42-576-257-959-257-384.13,0-728.38,100.15-961,258.36V844.56Z"/><ellipse class="cls-2" cx="272.55" cy="541.56" rx="197.5" ry="19.5" transform="translate(-194.49 154.98) rotate(-23.67)"/><ellipse class="cls-2" cx="1102.55" cy="471.06" rx="41.5" ry="67" transform="translate(553.62 1536.98) rotate(-85.89)"/><ellipse class="cls-2" cx="1460.05" cy="496.56" rx="33.5" ry="75" transform="translate(481.21 1688.28) rotate(-69.38)"/><ellipse class="cls-2" cx="795.55" cy="411.56" rx="242.5" ry="28.5" transform="translate(-40.1 89.13) rotate(-6.26)"/><ellipse class="cls-2" cx="428.05" cy="712.06" rx="112" ry="41" transform="translate(-199.19 167.25) rotate(-18.01)"/><ellipse class="cls-2" cx="996.55" cy="743.56" rx="257.5" ry="30.5"/><ellipse class="cls-2" cx="715.55" cy="492.56" rx="88.5" ry="10.5" transform="translate(-52.61 86.91) rotate(-6.7)"/><path class="cls-3" d="M513.11,237.49c-6.38,0-11.6-5.46-11.6-12.14v-83c-55.06,27.13-91,105.39-104.64,154.11C367,403.34,396,541.26,449.26,553.49c25.62,5.89,2.35-35.28,8.15-84.63,8.08-68.68,39.44-154.59,43.73-163.78a48.19,48.19,0,0,1,6.93-10A552.77,552.77,0,0,1,516,237.49Z"/><path class="cls-3" d="M748.53,138.73v86.62a12,12,0,0,1-10.1,12c3.25,16.85,5.77,34.57,7.48,53,5.38,5.73,9.31,10.76,11.15,14.72,4.29,9.19,35.65,95.1,43.73,163.78,5.8,49.35-17.46,90.52,8.15,84.63,53.3-12.23,82.31-150.15,52.39-257.08C847,245.32,808.21,161.77,748.53,138.73Z"/><path class="cls-4" d="M684.23,237.49H574c-25.53,19.59-52.72,42-65.9,57.58-1.44,16.95-2.21,34.44-2.21,52.34,0,97.51,22.61,123.58,56.51,129.74a13.11,13.11,0,0,1,12-8.42H686.51A13,13,0,0,1,698,476c30.63-8,50.5-36.24,50.5-128.59,0-19.56-.9-38.64-2.62-57.05C731.69,275.2,707.28,255.18,684.23,237.49Z"/><path class="cls-4" d="M574,237.49H516a552.77,552.77,0,0,0-7.88,57.58C521.25,279.53,548.44,257.08,574,237.49Z"/><path class="cls-4" d="M736.94,237.49H684.23c23,17.69,47.46,37.71,61.68,52.87-1.71-18.41-4.23-36.13-7.48-53A10.56,10.56,0,0,1,736.94,237.49Z"/><path class="cls-4" d="M627.74,477.84c-24,0-46.45,2.76-65.37-.69a14.06,14.06,0,0,0-1,5.25v22.78c0,7.52,5.88,13.67,13.06,13.67H686.51c7.18,0,13.06-6.15,13.06-13.67V482.4A14,14,0,0,0,698,476C678.27,481.14,654,477.84,627.74,477.84Z"/><path class="cls-4" d="M686.51,468.73H574.42a13.11,13.11,0,0,0-12,8.42c18.92,3.45,41.37.69,65.37.69,26.28,0,50.53,3.3,70.29-1.84A13,13,0,0,0,686.51,468.73Z"/><path class="cls-5" d="M551,133.41c20.83-38.2,47.35-61.09,76.23-61.09s55.62,23.08,76.49,61.56a94.41,94.41,0,0,1,15.79-1.17,88.41,88.41,0,0,1,29,6V97.83l-247-84.56v129a90.39,90.39,0,0,1,37.21-9.59A88.9,88.9,0,0,1,551,133.41Z"/><path class="cls-5" d="M513.11,237.49H516c7.85-40.81,19.95-76.45,35-104.08a88.9,88.9,0,0,0-12.25-.7,90.39,90.39,0,0,0-37.21,9.59v83C501.51,232,506.73,237.49,513.11,237.49Z"/><path class="cls-5" d="M703.69,133.88c14.94,27.54,26.93,63,34.74,103.5a12,12,0,0,0,10.1-12V138.73a88.41,88.41,0,0,0-29-6A94.41,94.41,0,0,0,703.69,133.88Z"/><path class="cls-5" d="M614.56,165.61c6.3,7.44,11.19,12.55,14.54,16.35,3.35-3.8,8.24-8.91,14.54-16.35,18.59-22,43.86-29.3,60.05-31.73C682.82,95.4,656.2,72.32,627.2,72.32S571.8,95.21,551,133.41C566.8,135.28,594.55,142,614.56,165.61Z"/><path class="cls-5" d="M629.1,197.47c-3.5,2.62-8.75,6-15.91,11.06-10.57,7.5-24.62,17.76-39.22,29H684.23c-14.59-11.2-28.64-21.46-39.22-29C637.85,203.45,632.6,200.09,629.1,197.47Z"/><path class="cls-5" d="M629.1,197.47c-7.28-5.45-6.9-7.7,0-15.51-3.35-3.8-8.24-8.91-14.54-16.35-20-23.62-47.76-30.33-63.59-32.2C535.9,161,523.8,196.68,516,237.49h58c14.6-11.2,28.65-21.46,39.22-29C620.35,203.45,625.6,200.09,629.1,197.47Z"/><path class="cls-5" d="M643.64,165.61c-6.3,7.44-11.19,12.55-14.54,16.35,6.9,7.81,7.28,10.06,0,15.51,3.5,2.62,8.75,6,15.91,11.06,10.58,7.5,24.63,17.76,39.22,29h52.71a10.56,10.56,0,0,0,1.49-.11c-7.81-40.53-19.8-76-34.74-103.5C687.5,136.31,662.23,143.66,643.64,165.61Z"/><path class="cls-5" d="M629.1,197.47c7.28-5.45,6.9-7.7,0-15.51C622.2,189.77,621.82,192,629.1,197.47Z"/><path class="cls-5" d="M1248,448.61l.21-.42L1493.05,439,1363,221.6l.72-1.42L1013.64,25.8,826.53,214.61Zm-226.9-167.25a14,14,0,0,1-5.42-18.48l31.62-62.39a12.81,12.81,0,0,1,17.65-5.67L1227.39,285a14,14,0,0,1,5.42,18.48l-31.62,62.39a12.81,12.81,0,0,1-17.65,5.67Z"/><path class="cls-6" d="M1201.19,365.9l31.62-62.39a14,14,0,0,0-5.42-18.48l-162.47-90.21a12.81,12.81,0,0,0-17.65,5.67l-31.62,62.39a14,14,0,0,0,5.42,18.48l162.47,90.21A12.81,12.81,0,0,0,1201.19,365.9Z"/><polygon class="cls-5" points="578.53 23.18 576.39 81.1 529.54 50.2 578.53 23.18"/><polygon class="cls-5" points="629.2 36.43 677.34 105.67 595.99 114.69 629.2 36.43"/><polygon class="cls-5" points="708.61 73.66 734.74 139.47 667.22 130.25 708.61 73.66"/><polygon class="cls-5" points="507.28 4.94 537.19 29.24 502.14 44.2 507.28 4.94"/><polygon class="cls-5" points="613.37 34.78 614.36 109.58 551.98 73.08 613.37 34.78"/><polygon class="cls-5" points="671.95 62.95 704.27 146.43 619.04 133.99 671.95 62.95"/><polygon class="cls-5" points="983.87 33.12 1049.86 54.47 999.21 103.61 983.87 33.12"/><polygon class="cls-5" points="842.95 178.97 888.54 188.56 857.81 225.09 842.95 178.97"/><polygon class="cls-5" points="852.31 134.96 953.32 139.61 898.97 228.85 852.31 134.96"/><polygon class="cls-5" points="915.79 57.98 1072.82 100.52 959.11 221.6 915.79 57.98"/><polygon class="cls-5" points="904.7 107.7 964.54 109.54 933.1 162.86 904.7 107.7"/><path class="cls-2" d="M1825.6,687.19c-145.83-48.93-269.88-71.19-277.08-49.72s105.17,78.53,251,127.46c44.88,15.05,87.69,27.58,125.67,37.09l.77-77.86C1895.38,711.77,1861.51,699.23,1825.6,687.19Z"/></svg>
