<svg id="Layer_1" data-name="Layer 1" xmlns="http://www.w3.org/2000/svg" viewBox="0 0 1930 1050"><defs><style>.cls-1{fill:#b0381f;}.cls-1,.cls-12{stroke:#000;}.cls-1,.cls-11,.cls-12{stroke-miterlimit:10;}.cls-2{fill:#ea543b;}.cls-3{fill:#f22;}.cls-4{fill:#5b5b5b;}.cls-5{fill:#c4c4c4;}.cls-6{fill:#aef7ff;}.cls-7{fill:#5e5e5e;}.cls-8{fill:#2671f7;}.cls-9{fill:#2e2f30;}.cls-10{fill:#d6d6d6;}.cls-11,.cls-12{fill:none;}.cls-11{stroke:#2671f7;stroke-width:12px;}.cls-12{stroke-width:8px;}.cls-13{font-size:12.36px;font-family:MyriadPro-Regular, Myriad Pro;}.cls-14{fill:#afafaf;}.cls-15{fill:#c6c3c2;}.cls-16{fill:#aac0ff;opacity:0.72;}.cls-17{fill:#dbdbdb;}.cls-18{fill:#fffdfd;}.cls-19{fill:#bf84a7;}.cls-20{fill:#3d2c33;}.cls-21{fill:#505151;}</style></defs><title>mellemgrund-level-complete</title><path class="cls-1" d="M1924.62,1047.21V810.71c-232.59-157.42-576-257-959-257-384.14,0-728.38,100.16-961,258.36v235.14Z"/><ellipse class="cls-2" cx="236.62" cy="771.21" rx="197.5" ry="19.5" transform="translate(-289.71 159.88) rotate(-23.67)"/><ellipse class="cls-2" cx="1040.62" cy="642.71" rx="41.5" ry="67" transform="translate(324.91 1634.54) rotate(-85.89)"/><ellipse class="cls-2" cx="1398.12" cy="668.21" rx="33.5" ry="75" transform="translate(280.42 1741.52) rotate(-69.38)"/><ellipse class="cls-2" cx="765.62" cy="595.21" rx="242.5" ry="28.5" transform="translate(-60.29 86.96) rotate(-6.26)"/><ellipse class="cls-2" cx="366.12" cy="883.71" rx="112" ry="41" transform="translate(-255.3 156.51) rotate(-18.01)"/><ellipse class="cls-2" cx="934.62" cy="915.21" rx="257.5" ry="30.5"/><ellipse class="cls-2" cx="653.62" cy="664.21" rx="88.5" ry="10.5" transform="translate(-73.08 80.85) rotate(-6.7)"/><path class="cls-2" d="M1825.53,916.84c-145.82-48.92-269.87-71.18-277.08-49.71s105.18,78.53,251,127.45c44.88,15.06,87.69,27.59,125.67,37.09l.76-77.86C1895.32,941.43,1861.44,928.89,1825.53,916.84Z"/><path class="cls-3" d="M575.36,449.57c-19.18-17.1-45.43-13.55-47.11-13.3-44.95,6.77-67.22,68-73,102.55-10.56,62.59,15.85,138.58,48.23,141.76,15.57,1.54-1-20.12-.83-48.45.18-39.42,13-90.21,14.93-95.72,4.4-12.58,41.58-46.63,59.89-62.47C593.39,460.12,592.48,464.81,575.36,449.57Z"/><path class="cls-3" d="M592.58,447.53c14.67-21.1,41-23.78,42.71-23.93,45.29-3.91,81.24,50.47,95,82.67,24.88,58.4,16.93,138.45-13.81,149.11-14.78,5.12-3.75-19.8-10.49-47.31-9.38-38.29-33.71-84.69-36.86-89.59-7.22-11.21-51.33-35.64-72.82-46.77C577.52,462,579.5,466.35,592.58,447.53Z"/><path class="cls-4" d="M666.87,543c10.17,86-23.11,77.55-62.8,82.25S533.34,646,523.17,560,536.92,400.6,576.6,395.91,656.7,457.08,666.87,543Z"/><rect class="cls-4" x="565.55" y="619.83" width="82.41" height="28.55" rx="12" transform="translate(-70.32 75.7) rotate(-6.75)"/><path class="cls-5" d="M616.46,119.36,529,2.29,471.36,136.53l-.91.11,42,354.65a6.93,6.93,0,0,0,7.68,6l132.54-15.69A6.93,6.93,0,0,0,658.7,474l-42-354.64Z"/><rect class="cls-6" x="553.35" y="171.01" width="55.81" height="125.24" rx="12" transform="translate(-23.43 69.93) rotate(-6.75)"/><path class="cls-7" d="M972.94,591.82a32.32,32.32,0,0,1-32.79-31.77l7.34-.12a24.95,24.95,0,1,0,49.89-.78l7.33-.11A32.3,32.3,0,0,1,972.94,591.82Z"/><rect class="cls-8" x="986.24" y="425.54" width="34.25" height="144.89" rx="17.12" transform="translate(57.06 -101.38) rotate(5.95)"/><rect x="1006.34" y="415" width="9.73" height="13.58" rx="4.86" transform="translate(49.2 -102.61) rotate(5.95)"/><path d="M1025.3,417.5c.14,3-5.28,2.44-13.7,1.47-8-.92-14-1.4-13.1-4.26s6.3-2.24,13.7-1.47C1023.79,414.45,1025.23,415.91,1025.3,417.5Z"/><rect class="cls-9" x="1007.85" y="412.6" width="7.9" height="5.07" rx="2.53" transform="translate(48.52 -102.71) rotate(5.95)"/><path class="cls-10" d="M1017.66,457.61l-18.48-2.54-8.11-4.31-3.3,31.64,0,0c.2,3.76,8.53,6,16.48,6.8a50.48,50.48,0,0,0,11.85.07c3.47-.51,5.38-1.63,5.69-3.33h0l3.3-31.65Z"/><path class="cls-11" d="M1023.92,454.19c-.25,2.39-6.83,3.36-16.24,2.38s-15.63-3.49-15.38-5.88"/><ellipse class="cls-12" cx="1001.86" cy="472.36" rx="10.03" ry="6.28" transform="translate(428.13 1419.82) rotate(-84.05)"/><text class="cls-13" transform="translate(1008.14 484.28) rotate(5.95)">2</text><text/><path class="cls-14" d="M994.3,511.23c-14.22,68.93-39.09,83.72-110.08,69.08s-102.25-33.09-88-102,58.46-115.76,129.45-101.12S1008.52,442.29,994.3,511.23Z"/><ellipse class="cls-15" cx="913.46" cy="408.33" rx="31.39" ry="80.7" transform="translate(370.15 1248.54) rotate(-81.2)"/><rect class="cls-14" x="892.55" y="331.96" width="55.03" height="77.04" rx="26.22" transform="translate(124.53 -221.89) rotate(14.74)"/><rect class="cls-16" x="892.24" y="343.15" width="42.82" height="59.95" rx="21.41" transform="translate(124.99 -220.17) rotate(14.74)"/><ellipse class="cls-15" cx="928.97" cy="337.01" rx="6.79" ry="26.42" transform="translate(366.7 1149.67) rotate(-75.26)"/><rect class="cls-14" x="824.18" y="564.8" width="34.85" height="85.85" rx="12" transform="translate(301.36 -278.71) rotate(22.81)"/><path class="cls-14" d="M924.86,659.34l-17.79-34.8h0l-1.43-48.64a4.41,4.41,0,0,0-4.53-4.27l-26,.77a4.41,4.41,0,0,0-4.27,4.53l1.38,46.86h-.1l3.06,14.88,0,0,.05.11.11.5.12-.06,18.38,36a4.43,4.43,0,0,0,5.93,1.91l23.19-11.85A4.42,4.42,0,0,0,924.86,659.34ZM904.34,624.5l1.69,0,0,0Z"/><ellipse class="cls-17" cx="915.76" cy="680.3" rx="34.49" ry="23.3" transform="translate(-66.32 1260.77) rotate(-67.19)"/><ellipse class="cls-17" cx="900.48" cy="693.22" rx="19.85" ry="26.79" transform="translate(-43.9 1325.34) rotate(-71.39)"/><path class="cls-17" d="M755.93,622.64c-4.95,11.77,18,40.58,41.29,50.4s40.52,5.71,46.84-5.38C863.82,633,826.59,653,815.14,630.43,808,616.27,760.88,610.88,755.93,622.64Z"/><ellipse class="cls-18" cx="901.24" cy="375.5" rx="13.02" ry="5.87" transform="translate(308.81 1151.56) rotate(-75.26)"/><ellipse class="cls-18" cx="917.65" cy="380.01" rx="13.02" ry="5.87" transform="translate(316.68 1170.79) rotate(-75.26)"/><path class="cls-19" d="M898,391.83c-2.16,3.35,1,4.85,4.9,4.45,4.57-.47,2.73.49,4-1.09s1.62-1.68-1.43-4.18A5.08,5.08,0,0,0,898,391.83Z"/><ellipse class="cls-20" cx="902.18" cy="395.99" rx="1.47" ry="0.37" transform="translate(-9.84 23.22) rotate(-1.47)"/><ellipse class="cls-20" cx="899.53" cy="395.67" rx="0.37" ry="1.47" transform="translate(254.8 1137.31) rotate(-72.74)"/><ellipse cx="898.94" cy="380.5" rx="4.22" ry="2.75" transform="translate(329.34 1173.24) rotate(-77.24)"/><ellipse cx="915.35" cy="385.01" rx="4.22" ry="2.75" transform="translate(337.73 1192.76) rotate(-77.24)"/><path d="M918.5,403.6a11.93,11.93,0,0,0,5.4-6.8l-.33-.57-.34-.14-.57.28-.41.39c0,2.07-1.59,4-4.44,5.55a20,20,0,0,1-4.57,1.68l2.7.73A20.58,20.58,0,0,0,918.5,403.6Z"/><path d="M899.45,352.39a.18.18,0,0,1-.17-.2.2.2,0,0,1,.19-.21,6.14,6.14,0,0,0,1.68-.32,9.42,9.42,0,0,1,3.47-.48,21.4,21.4,0,0,0,2.77,0,10.42,10.42,0,0,1,2.85.13.2.2,0,0,1,.13.25.18.18,0,0,1-.22.15,10.47,10.47,0,0,0-2.75-.12,20.32,20.32,0,0,1-2.81,0,9.24,9.24,0,0,0-3.35.46,6.41,6.41,0,0,1-1.78.35Z"/><path d="M918,353.94a.18.18,0,0,1-.09-.25.19.19,0,0,1,.26-.09,7.82,7.82,0,0,0,1.79.52,11.81,11.81,0,0,1,3.61,1.22,26.62,26.62,0,0,0,2.73,1.31,13.13,13.13,0,0,1,2.76,1.45.18.18,0,0,1,0,.27.2.2,0,0,1-.28,0,13.2,13.2,0,0,0-2.67-1.39,29.64,29.64,0,0,1-2.77-1.33,11.36,11.36,0,0,0-3.48-1.18A8,8,0,0,1,918,354Z"/><path class="cls-21" d="M939.48,491.56c1.18,39.36-4.52,71.46-12.72,71.71s-15.8-31.46-17-70.82,5.19-30.73,13.39-31S938.31,452.2,939.48,491.56Z"/><ellipse class="cls-17" cx="911.9" cy="552.71" rx="11.19" ry="8.44" transform="translate(-152.84 610.83) rotate(-34.34)"/><ellipse class="cls-17" cx="915.88" cy="563.96" rx="17.65" ry="6.38" transform="translate(-10.36 1110.74) rotate(-62.18)"/><ellipse class="cls-17" cx="924.99" cy="566.27" rx="17.57" ry="4.61" transform="translate(263.4 1425.66) rotate(-83.88)"/><ellipse class="cls-17" cx="929.79" cy="563.53" rx="4.61" ry="14.25" transform="translate(-124.91 299.54) rotate(-17.17)"/><path class="cls-17" d="M933.52,555.24c-1.37,4.66-8,6.17-13.73,3.78s-8.78-8-6.9-12.45,4.36-4.39,13.73-3.78C938.69,543.59,937.43,542,933.52,555.24Z"/></svg>
