<svg id="Layer_1" data-name="Layer 1" xmlns="http://www.w3.org/2000/svg" xmlns:xlink="http://www.w3.org/1999/xlink" viewBox="0 0 1930 1030"><defs><style>.cls-1{fill:#ed4048;}.cls-1,.cls-13,.cls-2,.cls-29{stroke:#000;}.cls-1,.cls-12,.cls-13,.cls-2,.cls-29{stroke-miterlimit:10;}.cls-2{fill:#b0381f;}.cls-3{fill:#ea543b;}.cls-4{fill:#f22;}.cls-5{fill:#5b5b5b;}.cls-6{fill:#c4c4c4;}.cls-7{fill:#aef7ff;}.cls-8{fill:#5e5e5e;}.cls-9{fill:#2671f7;}.cls-10{fill:#2e2f30;}.cls-11{fill:#d6d6d6;}.cls-12,.cls-13,.cls-29{fill:none;}.cls-12{stroke:#2671f7;stroke-width:12px;}.cls-13{stroke-width:8px;}.cls-14{font-size:26.31px;font-family:MyriadPro-Regular, Myriad Pro;}.cls-15{fill:#afafaf;}.cls-16{fill:#c6c3c2;}.cls-17{fill:#aac0ff;opacity:0.72;}.cls-18{fill:#dbdbdb;}.cls-19{fill:#fffdfd;}.cls-20{fill:#bf84a7;}.cls-21{fill:#3d2c33;}.cls-22{fill:#505151;}.cls-23{fill:#515151;}.cls-24{fill:#828282;}.cls-25{fill:#fff;}.cls-26{fill:#b7a925;}.cls-27{fill:#825050;}.cls-28{fill:#c40c0c;}.cls-29{stroke-linecap:round;stroke-width:5px;}.cls-30{fill:url(#linear-gradient);}.cls-31{fill:url(#linear-gradient-2);}</style><linearGradient id="linear-gradient" x1="1589.75" y1="959.55" x2="1713.75" y2="959.55" gradientUnits="userSpaceOnUse"><stop offset="0" stop-color="#fff"/><stop offset="0" stop-color="#dbdbdb"/><stop offset="0" stop-color="#807f81"/><stop offset="0" stop-color="#757476"/><stop offset="0.06" stop-color="#565557" stop-opacity="0.77"/><stop offset="0.13" stop-color="#3c3b3d" stop-opacity="0.58"/><stop offset="0.21" stop-color="#262527" stop-opacity="0.42"/><stop offset="0.3" stop-color="#151416" stop-opacity="0.3"/><stop offset="0.41" stop-color="#0a090b" stop-opacity="0.21"/><stop offset="0.56" stop-color="#030204" stop-opacity="0.16"/><stop offset="1" stop-color="#010002" stop-opacity="0.15"/></linearGradient><linearGradient id="linear-gradient-2" x1="10341.75" y1="867.55" x2="10465.75" y2="867.55" gradientTransform="matrix(-1, 0, 0, 1, 11741.5, 0)" xlink:href="#linear-gradient"/></defs><title>mellemgrund_startskaerm</title><line class="cls-1" x1="4.25" y1="1026.85" x2="4.25" y2="791.71"/><path class="cls-2" d="M1925.25,1025.85V789.35c-232.59-157.42-576-257-959-257-384.14,0-728.38,100.16-961,258.36v235.14Z"/><ellipse class="cls-3" cx="240.25" cy="717.35" rx="78.5" ry="34" transform="translate(-230.4 125.06) rotate(-19.96)"/><ellipse class="cls-3" cx="390.25" cy="939.85" rx="51.5" ry="12.5"/><ellipse class="cls-3" cx="878.75" cy="893.85" rx="51" ry="33.5"/><ellipse class="cls-3" cx="1378.25" cy="952.35" rx="31" ry="118.5" transform="translate(62.21 1988.98) rotate(-72.87)"/><ellipse class="cls-3" cx="1399.25" cy="717.35" rx="28" ry="46.5" transform="translate(301.61 1843.27) rotate(-72.87)"/><ellipse class="cls-3" cx="1756.08" cy="860.09" rx="48.84" ry="71.81" transform="translate(133.18 1950.85) rotate(-60)"/><ellipse class="cls-3" cx="1154.75" cy="689.35" rx="40" ry="50" transform="translate(382.25 1790.22) rotate(-85.78)"/><ellipse class="cls-3" cx="562.25" cy="670.85" rx="126.5" ry="42.5" transform="translate(-135.34 142.14) rotate(-12.87)"/><path class="cls-4" d="M280.29,523.9a6.46,6.46,0,0,1-7.9-4.54L260.85,476.8C235.08,498.71,226.67,544,226.13,571c-1.2,59.15,33.53,125.6,63.81,124.12,14.56-.71-3.64-18.42-7.38-44.55-5.21-36.37-.32-84.95.7-90.29a26.06,26.06,0,0,1,2.33-6.14,281.34,281.34,0,0,1-3.77-30.65Z"/><path class="cls-4" d="M475.26,503.45c-14.76-24.1-47.19-61.27-82.4-64.4l12,44.39a6.46,6.46,0,0,1-3.75,7.63,278.75,278.75,0,0,1,11.37,26.06,34.41,34.41,0,0,1,8,5.93c3.58,4.08,32.33,43.54,46.21,77.57,10,24.44,3.2,48.92,16.13,42.18C509.77,628.79,506.17,553.9,475.26,503.45Z"/><path class="cls-5" d="M372.08,499l-59.14,16c-11,13.75-22.44,29.2-27.35,39.08,1.58,8.9,3.6,18,6.09,27.15,13.54,50,29.29,60,48.33,58.26a7.29,7.29,0,0,1,5.29-6.07l60.13-16.3a7.26,7.26,0,0,1,7.19,2.06c15.32-8.54,22.05-25.92,9.23-73.24-2.72-10-5.86-19.67-9.34-28.86C402.78,511.43,386.9,504.72,372.08,499Z"/><path class="cls-5" d="M312.94,515.05l-31.12,8.43a281.34,281.34,0,0,0,3.77,30.65C290.5,544.25,302,528.8,312.94,515.05Z"/><path class="cls-5" d="M400.35,491.35,372.08,499c14.82,5.71,30.7,12.42,40.43,18.12a278.75,278.75,0,0,0-11.37-26.06A6.12,6.12,0,0,1,400.35,491.35Z"/><path class="cls-5" d="M375.17,630.39c-12.87,3.49-24.53,8.17-35.16,9.15a7.22,7.22,0,0,0,.19,2.84l3.16,11.67a7.29,7.29,0,0,0,8.91,5.11l60.12-16.3a7.28,7.28,0,0,0,5.1-8.91l-3.16-11.67a7.12,7.12,0,0,0-1.71-3C402.73,624.74,389.27,626.57,375.17,630.39Z"/><path class="cls-5" d="M405.43,617.17l-60.13,16.3a7.29,7.29,0,0,0-5.29,6.07c10.63-1,22.29-5.66,35.16-9.15,14.1-3.82,27.56-5.65,37.45-11.16A7.26,7.26,0,0,0,405.43,617.17Z"/><path class="cls-6" d="M286.14,465.05c5.87-22.6,16.92-38.18,32.41-42.38s33,3.74,49.58,20.42a54.86,54.86,0,0,1,8.31-2.9,51.32,51.32,0,0,1,16.42-1.14L379,388.1,246.54,424l14.31,52.78a52.1,52.1,0,0,1,18.63-10.32A51.1,51.1,0,0,1,286.14,465.05Z"/><path class="cls-6" d="M280.29,523.9l1.53-.42c-1.46-22.05.08-42.08,4.32-58.43a51.1,51.1,0,0,0-6.66,1.43,52.1,52.1,0,0,0-18.63,10.32l11.54,42.56A6.46,6.46,0,0,0,280.29,523.9Z"/><path class="cls-6" d="M368.13,443.09c11.84,11.94,23.19,28.35,33,48a6.46,6.46,0,0,0,3.75-7.63l-12-44.39a51.32,51.32,0,0,0-16.42,1.14A54.86,54.86,0,0,0,368.13,443.09Z"/><path class="cls-6" d="M324.73,472.31c4.41,2.9,7.74,4.8,10.07,6.26,1.27-2.43,3.18-5.76,5.53-10.49,6.92-13.95,19.45-21.39,27.8-25-16.54-16.68-34-24.64-49.58-20.42S292,442.45,286.14,465.05C294.9,463.71,310.71,463.11,324.73,472.31Z"/><path class="cls-6" d="M337,486.52c-1.51,1.85-3.86,4.34-7,8-4.64,5.38-10.75,12.69-17,20.55l59.14-16c-9.38-3.61-18.34-6.83-25.06-9.14C342.47,488.31,339.19,487.35,337,486.52Z"/><path class="cls-6" d="M337,486.52c-4.66-1.74-4.77-2.94-2.15-7.95-2.33-1.46-5.66-3.36-10.07-6.26-14-9.2-29.83-8.6-38.59-7.26-4.24,16.35-5.78,36.38-4.32,58.43l31.12-8.43c6.27-7.86,12.38-15.17,17-20.55C333.09,490.86,335.44,488.37,337,486.52Z"/><path class="cls-6" d="M340.33,468.08c-2.35,4.73-4.26,8.06-5.53,10.49,4.78,3,5.3,4.1,2.15,7.95,2.24.83,5.52,1.79,10.07,3.35,6.72,2.31,15.68,5.53,25.06,9.14l28.27-7.66a6.12,6.12,0,0,0,.79-.28c-9.82-19.63-21.17-36-33-48C359.78,446.69,347.25,454.13,340.33,468.08Z"/><path class="cls-6" d="M337,486.52c3.15-3.85,2.63-4.95-2.15-7.95C332.18,483.58,332.29,484.78,337,486.52Z"/><path class="cls-6" d="M411.49,162.38l-.25,0L359.71,36.29l-83.4,107.65-.85-.11-31.63,231.9,136,18.55Zm-39.85,149a7.29,7.29,0,0,1-8.18,6.21l-37.15-5.07a7.28,7.28,0,0,1-6.21-8.17l13.81-101.27a7.29,7.29,0,0,1,8.18-6.21l37.15,5.07a7.28,7.28,0,0,1,6.21,8.17Z"/><rect class="cls-7" x="294.41" y="231.21" width="116.72" height="52.01" rx="7.26" transform="translate(50.24 572) rotate(-82.23)"/><polygon class="cls-6" points="250.64 430.26 256.07 408.1 272.55 423.88 250.64 430.26"/><polygon class="cls-6" points="269.5 410.28 305.37 418.01 280.75 445.21 269.5 410.28"/><polygon class="cls-6" points="288.31 391.99 325.04 408.59 292.3 432.1 288.31 391.99"/><polygon class="cls-6" points="335.53 391.89 345.86 415.33 320.39 412.56 335.53 391.89"/><polygon class="cls-6" points="264.4 386.02 252.47 368.91 273.25 367.14 264.4 386.02"/><polygon class="cls-6" points="298.08 366.54 321.3 375.03 302.33 390.89 298.08 366.54"/><polygon class="cls-6" points="344.46 393.91 332.87 384.3 346.98 379.07 344.46 393.91"/><polygon class="cls-6" points="269.63 376.22 293.16 379.73 278.36 398.35 269.63 376.22"/><path class="cls-8" d="M1735,721.64a68.79,68.79,0,0,1-60.52-76l15.52,1.76a53.11,53.11,0,0,0,105.54,12l15.52,1.76A68.81,68.81,0,0,1,1735,721.64Z"/><rect class="cls-9" x="1788.45" y="377.65" width="72.9" height="308.43" rx="31.21" transform="translate(171.95 -406.7) rotate(13.34)"/><rect x="1851.96" y="358.7" width="20.71" height="28.9" rx="8.86" transform="translate(136.34 -419.61) rotate(13.34)"/><path d="M1893.25,368c-.52,6.32-11.83,3.71-29.33-.65-16.53-4.11-29.23-6.78-26.49-12.58s13.91-3,29.32.65C1890.89,361.09,1893.53,364.58,1893.25,368Z"/><rect class="cls-10" x="1856.98" y="353.86" width="16.82" height="10.78" rx="4.62" transform="matrix(0.97, 0.23, -0.23, 0.97, 133.22, -420.7)"/><path class="cls-11" d="M1866.13,450.54l-38.32-10.42-15.93-11.31-15.63,65.89.07,0c-.61,8,16.37,14.94,32.91,18.87,9.82,2.32,18.47,3.5,25,3.39,7.46-.13,11.8-2,12.92-5.47h0l15.62-65.89Z"/><path class="cls-12" d="M1880.29,445c-1.18,5-15.35,5.23-34.94.58s-32-11.64-30.85-16.63"/><ellipse class="cls-13" cx="1828.74" cy="477.36" rx="21.35" ry="13.37" transform="translate(942.32 2146.62) rotate(-76.66)"/><text class="cls-14" transform="translate(1838.81 504.05) rotate(13.34)">2</text><path class="cls-15" d="M1802.15,557.34C1753.26,699,1696.71,723.4,1550.84,673.05S1344,575.21,1392.92,433.57s155.1-228.4,301-178.06S1851,415.69,1802.15,557.34Z"/><ellipse class="cls-16" cx="1659.64" cy="317.98" rx="66.83" ry="171.79" transform="translate(891.55 1823.15) rotate(-73.81)"/><rect class="cls-15" x="1625.38" y="157.88" width="117.15" height="164.01" rx="26.22" transform="translate(214.35 -616.57) rotate(22.13)"/><rect class="cls-17" x="1624.1" y="179.91" width="91.16" height="127.63" rx="26.22" transform="matrix(0.93, 0.38, -0.38, 0.93, 214.74, -610.91)"/><ellipse class="cls-16" cx="1711.9" cy="171.67" rx="14.45" ry="56.23" transform="translate(908.12 1692.86) rotate(-67.87)"/><rect class="cls-15" x="1416.27" y="627.89" width="74.2" height="182.76" rx="12" transform="translate(558.89 -633.34) rotate(30.19)"/><path class="cls-15" d="M1615,851l-28-78.35.12,0,10.28-103.07a9.4,9.4,0,0,0-8.39-10.26l-55.18-5.5a9.4,9.4,0,0,0-10.26,8.39l-9.91,99.32-.22,0,2.39,32.26-.07,0,.09.25.08,1.08.28-.09,29,81a9.4,9.4,0,0,0,12,5.67L1609.34,863A9.42,9.42,0,0,0,1615,851Zm-33.78-79.16,3.55.5-.07,0Z"/><ellipse class="cls-18" cx="1590.07" cy="892.78" rx="73.42" ry="49.59" transform="translate(18.74 1818.15) rotate(-59.81)"/><ellipse class="cls-18" cx="1554.28" cy="915.89" rx="42.25" ry="57.02" transform="translate(49.74 1911.37) rotate(-64)"/><path class="cls-18" d="M1268.42,727.32c-13.66,23.49,26.78,90.58,73.39,117.7s84,23.15,100.35,1.46c51.19-67.8-32.87-35.69-50.86-86.52C1380,728.1,1282.09,703.83,1268.42,727.32Z"/><ellipse class="cls-19" cx="1642.84" cy="245.33" rx="27.73" ry="12.5" transform="translate(796.83 1674.8) rotate(-67.87)"/><ellipse class="cls-19" cx="1676.25" cy="259.35" rx="27.73" ry="12.5" transform="translate(804.67 1714.48) rotate(-67.87)"/><path class="cls-20" d="M1631.43,278.91c-5.47,6.48.73,10.49,9.12,10.73,9.79.27,5.65,1.79,8.83-1.19s3.88-3.11-1.87-9.22A10.81,10.81,0,0,0,1631.43,278.91Z"/><ellipse class="cls-21" cx="1639.2" cy="288.85" rx="0.78" ry="3.12" transform="translate(1182.84 1889.52) rotate(-84.08)"/><ellipse class="cls-21" cx="1633.69" cy="287.45" rx="0.78" ry="3.12" transform="translate(691.19 1652.47) rotate(-65.36)"/><ellipse cx="1636.61" cy="255.26" rx="8.98" ry="5.86" transform="translate(833.38 1703.87) rotate(-69.86)"/><ellipse cx="1670.02" cy="269.28" rx="8.98" ry="5.86" transform="translate(842.13 1744.43) rotate(-69.86)"/><path d="M1671.56,309.39c7.55-2.83,12.12-10,13.28-12.88l-.54-1.3-.68-.39-1.28.43-1,.72c-.6,4.36-4.47,8.09-10.89,10.49a41.26,41.26,0,0,1-10.11,2.29l5.51,2.28A40.13,40.13,0,0,0,1671.56,309.39Z"/><path d="M1645.37,196.06a.4.4,0,0,1-.3-.48.42.42,0,0,1,.46-.38,12.82,12.82,0,0,0,3.64-.23,20.09,20.09,0,0,1,7.46-.05,48.73,48.73,0,0,0,5.83.78,21.69,21.69,0,0,1,6,1.06.43.43,0,0,1,.22.55.41.41,0,0,1-.52.27,21.11,21.11,0,0,0-5.78-1,47.19,47.19,0,0,1-5.92-.8,19.16,19.16,0,0,0-7.2.07,13.79,13.79,0,0,1-3.85.23Z"/><path d="M1684.08,204.4a.41.41,0,1,1,.47-.66,16.85,16.85,0,0,0,3.63,1.57,25.28,25.28,0,0,1,7.28,3.57,61,61,0,0,0,5.4,3.51,27.81,27.81,0,0,1,5.44,3.81.41.41,0,0,1,0,.59.44.44,0,0,1-.6,0,27.63,27.63,0,0,0-5.26-3.67,61.17,61.17,0,0,1-5.48-3.56,24.3,24.3,0,0,0-7-3.44,17.91,17.91,0,0,1-3.84-1.67Z"/><path class="cls-22" d="M1691.8,500.81c-8.29,83.42-29.1,149.64-46.48,147.91s-24.76-70.75-16.47-154.16,19.37-63.44,36.75-61.72S1700.09,417.4,1691.8,500.81Z"/><ellipse class="cls-18" cx="1616.83" cy="622.37" rx="23.82" ry="17.96" transform="translate(-106.45 800.62) rotate(-26.96)"/><ellipse class="cls-18" cx="1622.15" cy="647.2" rx="37.58" ry="13.59" transform="translate(158.09 1599.44) rotate(-54.79)"/><ellipse class="cls-18" cx="1640.75" cy="654.56" rx="37.41" ry="9.82" transform="translate(621.19 2097.14) rotate(-76.5)"/><ellipse class="cls-18" cx="1651.64" cy="650.11" rx="9.82" ry="30.34" transform="matrix(0.99, -0.17, 0.17, 0.99, -86.43, 290.02)"/><path class="cls-18" d="M1661.78,633.63c-4.17,9.46-18.63,10.82-30,4.21s-16.38-19.23-11.17-28.17,10.4-8.08,30-4.21C1675.88,610.44,1673.69,606.63,1661.78,633.63Z"/><path class="cls-23" d="M1260.58,21.3,1130.77,90.83a13.67,13.67,0,0,0-5.6,18.5l22.25,41.52a13.66,13.66,0,0,0,18.49,5.6l37.61-20.15,113.85,212.57a9.76,9.76,0,0,0,9.45,5.1l1,1.8a5.51,5.51,0,0,0,7.46,2.26l33.85-18.13a5.51,5.51,0,0,0,2.26-7.46l-.84-1.58a9.73,9.73,0,0,0,1.46-11.24L1258.12,107.06l37.6-20.15a13.65,13.65,0,0,0,5.59-18.49l-22.24-41.53A13.66,13.66,0,0,0,1260.58,21.3Z"/><rect class="cls-24" x="1204.28" y="129.93" width="66.62" height="9.89" rx="2.56" transform="translate(82.96 600.34) rotate(-28.18)"/><rect class="cls-24" x="1212.39" y="145.08" width="66.62" height="9.89" rx="2.56" transform="translate(76.77 605.96) rotate(-28.18)"/><rect class="cls-24" x="1220.5" y="160.22" width="66.62" height="9.89" rx="2.56" transform="translate(70.58 611.59) rotate(-28.18)"/><rect class="cls-24" x="1228.61" y="175.36" width="66.62" height="9.89" rx="2.56" transform="translate(64.4 617.21) rotate(-28.18)"/><rect class="cls-24" x="1236.72" y="190.5" width="66.62" height="9.89" rx="2.56" transform="translate(58.21 622.84) rotate(-28.18)"/><rect class="cls-24" x="1244.83" y="205.64" width="66.62" height="9.89" rx="2.56" transform="translate(52.02 628.46) rotate(-28.18)"/><rect class="cls-24" x="1252.94" y="220.78" width="66.62" height="9.89" rx="2.56" transform="translate(45.83 634.08) rotate(-28.18)"/><rect class="cls-24" x="1261.51" y="235.68" width="66.62" height="9.89" rx="2.56" transform="translate(39.81 639.89) rotate(-28.18)"/><rect class="cls-24" x="1269.16" y="251.07" width="66.62" height="9.89" rx="2.56" transform="translate(33.45 645.33) rotate(-28.18)"/><rect class="cls-24" x="1277.27" y="266.21" width="66.62" height="9.89" rx="2.56" transform="translate(27.27 650.95) rotate(-28.18)"/><rect class="cls-24" x="1285.38" y="281.35" width="66.62" height="9.89" rx="2.56" transform="translate(21.08 656.58) rotate(-28.18)"/><rect class="cls-24" x="1293.49" y="296.49" width="66.62" height="9.89" rx="2.56" transform="translate(14.89 662.2) rotate(-28.18)"/><rect class="cls-24" x="1301.6" y="311.63" width="66.62" height="9.89" rx="2.56" transform="translate(8.7 667.83) rotate(-28.18)"/><rect class="cls-24" x="1310.17" y="326.53" width="66.62" height="9.89" rx="2.56" transform="translate(2.68 673.64) rotate(-28.18)"/><ellipse class="cls-25" cx="1216.32" cy="94.61" rx="12.75" ry="22.38" transform="translate(99.46 585.52) rotate(-28.18)"/><ellipse class="cls-25" cx="1197.96" cy="104.44" rx="12.75" ry="22.38" transform="translate(92.64 578.02) rotate(-28.18)"/><ellipse cx="1197.35" cy="111.56" rx="3.64" ry="9.63" transform="translate(89.2 578.58) rotate(-28.18)"/><ellipse cx="1215.24" cy="101.97" rx="3.64" ry="9.63" transform="translate(95.85 585.89) rotate(-28.18)"/><path d="M1183.64,85.59a1.37,1.37,0,0,1-.94.11,1.31,1.31,0,0,1-.94-1.58c.5-2,3.68-5.46,7.59-7.42a1.31,1.31,0,0,1,1.75.58,1.29,1.29,0,0,1-.58,1.74c-3.42,1.73-6,4.69-6.24,5.74A1.29,1.29,0,0,1,1183.64,85.59Z"/><path d="M1211.54,69.43a1.29,1.29,0,0,1-1.29,0c-1-.58-4.85-.85-8.3.48a1.3,1.3,0,1,1-.93-2.42c4-1.56,8.73-1.41,10.58-.28A1.3,1.3,0,0,1,1212,69,1.4,1.4,0,0,1,1211.54,69.43Z"/><path class="cls-26" d="M673.28,3.58,826.63,42.2A13.62,13.62,0,0,1,831.88,66l-91.63,74.29L685.06,360a.86.86,0,0,1-.23.39l-34.58,59.3-2.45-68.71a.67.67,0,0,1,0-.2v-.05h0s0-.06,0-.09L703,131,689.15,98,657.39,22A13.61,13.61,0,0,1,673.28,3.58Z"/><rect class="cls-27" x="695.75" y="148.92" width="43.52" height="6.14" rx="0.72" transform="translate(1376.36 474.23) rotate(-165.9)"/><rect class="cls-27" x="692.75" y="160.84" width="43.52" height="6.14" rx="0.72" transform="translate(1367.56 496.97) rotate(-165.9)"/><rect class="cls-27" x="689.76" y="172.75" width="43.52" height="6.14" rx="0.72" transform="translate(1358.75 519.72) rotate(-165.9)"/><rect class="cls-27" x="686.77" y="184.67" width="43.52" height="6.14" rx="0.72" transform="translate(1349.95 542.47) rotate(-165.9)"/><rect class="cls-27" x="683.77" y="196.59" width="43.52" height="6.14" rx="0.72" transform="translate(1341.15 565.21) rotate(-165.9)"/><rect class="cls-27" x="680.78" y="208.51" width="43.52" height="6.14" rx="0.72" transform="translate(1332.35 587.96) rotate(-165.9)"/><rect class="cls-27" x="677.78" y="220.42" width="43.52" height="6.14" rx="0.72" transform="translate(1323.55 610.7) rotate(-165.9)"/><rect class="cls-27" x="674.79" y="232.34" width="43.52" height="6.14" rx="0.72" transform="translate(1314.75 633.45) rotate(-165.9)"/><rect class="cls-27" x="671.8" y="244.26" width="43.52" height="6.14" rx="0.72" transform="translate(1305.94 656.2) rotate(-165.9)"/><rect class="cls-27" x="668.8" y="256.18" width="43.52" height="6.14" rx="0.72" transform="translate(1297.14 678.94) rotate(-165.9)"/><rect class="cls-27" x="665.81" y="268.09" width="43.52" height="6.14" rx="0.72" transform="translate(1288.34 701.69) rotate(-165.9)"/><rect class="cls-27" x="662.81" y="280.01" width="43.52" height="6.14" rx="0.72" transform="translate(1279.54 724.44) rotate(-165.9)"/><rect class="cls-27" x="659.82" y="291.93" width="43.52" height="6.14" rx="0.72" transform="translate(1270.74 747.18) rotate(-165.9)"/><rect class="cls-27" x="656.83" y="303.85" width="43.52" height="6.14" rx="0.72" transform="translate(1261.94 769.93) rotate(-165.9)"/><rect class="cls-27" x="653.83" y="315.76" width="43.52" height="6.14" rx="0.72" transform="translate(1253.13 792.68) rotate(-165.9)"/><rect class="cls-27" x="650.84" y="327.68" width="43.52" height="6.14" rx="0.72" transform="translate(1244.33 815.42) rotate(-165.9)"/><rect class="cls-27" x="647.84" y="339.6" width="43.52" height="6.14" rx="0.72" transform="translate(1235.53 838.17) rotate(-165.9)"/><path class="cls-25" d="M749.39,74.48c3.24-12.89,10-22.31,15.05-21s6.56,12.76,3.32,25.64a52.92,52.92,0,0,1-4.85,12.66c-3.21,5.79-7,9.17-10.2,8.38-2.69-.68-4.37-4.21-4.87-9.3A49.29,49.29,0,0,1,749.39,74.48Z"/><path class="cls-25" d="M730.76,70.86c3.24-12.89,10-22.31,15-21s6.57,12.75,3.33,25.64a53.34,53.34,0,0,1-4.85,12.66c-3.21,5.79-7,9.17-10.2,8.37-2.69-.67-4.37-4.21-4.88-9.3A49.49,49.49,0,0,1,730.76,70.86Z"/><ellipse cx="763.67" cy="73.32" rx="8.7" ry="3.84" transform="translate(506.49 796.1) rotate(-75.9)"/><ellipse cx="744.67" cy="69.07" rx="8.7" ry="3.84" transform="translate(496.24 774.47) rotate(-75.9)"/><path class="cls-28" d="M769.13,71.52c1.67-6.63.56-14.66-1.79-18.07-.89-1.3-.83-1.59-2.15-1.92-2.15-.54-3.32.1-5.29,2.12-2.92,3-7.08,8.68-8.14,13.51"/><path class="cls-28" d="M750.38,70.51a39.42,39.42,0,0,0,.51-10.43c-.07-.67-.18-1.61-.37-2.74a18.06,18.06,0,0,0-.74-3.35,6.56,6.56,0,0,0-1.86-3.11,5.33,5.33,0,0,0-1.6-.93,6.48,6.48,0,0,0-1.25-.31c-1.94-.25-4.32,1.65-4.72,2A16.74,16.74,0,0,0,736.62,56,49.5,49.5,0,0,0,732,65.89"/><circle class="cls-25" cx="764.22" cy="77.41" r="0.77"/><circle class="cls-25" cx="745.23" cy="73.17" r="0.77"/><path class="cls-29" d="M776,44.92c-5.94,0-10.06,1.45-19.69,6.32"/><path class="cls-29" d="M752.34,52.35C750.32,43,742,40.87,736.63,39"/><ellipse class="cls-30" cx="1651.75" cy="959.55" rx="62" ry="7.81"/><ellipse class="cls-31" cx="1337.75" cy="867.55" rx="62" ry="7.81"/></svg>
