<svg id="Layer_1" data-name="Layer 1" xmlns="http://www.w3.org/2000/svg" viewBox="0 0 1550 970"><defs><style>.cls-1{fill:#afafaf;}.cls-2{fill:#5b5b5b;}.cls-3{fill:#fff;}.cls-4{font-size:137px;font-family:Kremlin;}</style></defs><title>point</title><ellipse cx="761.26" cy="485" rx="757.93" ry="481.72"/><path class="cls-1" d="M1037.29,103.64c-108.13,0-195.79,82.73-195.79,184.79a175.12,175.12,0,0,0,8.16,52.9l-450,375.9a80,80,0,0,0-10.09,112.38h0A80,80,0,0,0,501.9,839.7L959.06,457.86a205.23,205.23,0,0,0,78.23,15.35c108.13,0,195.79-82.73,195.79-184.78S1145.42,103.64,1037.29,103.64Z"/><polygon points="974.55 219.7 1011.09 128.22 1097.88 81.64 1194.31 101.74 1255.26 179.12 1252.21 277.58 1186.59 351.04 1089.1 365.13 1005.36 313.26 974.55 219.7"/><rect class="cls-1" x="273.78" y="462.85" width="974.93" height="138.47" rx="69.24" transform="translate(451.37 -343.46) rotate(35.56)"/><path class="cls-2" d="M528.69,128.17,191.1,453.25,300,531.11,646.94,45.79h0C624.82,30,549.69,106.29,528.69,128.17Z"/><circle cx="441.67" cy="785" r="22.93"/><rect class="cls-3" x="1148.33" y="546.72" width="259" height="162" rx="12"/><rect class="cls-3" x="112.33" y="546.72" width="259" height="162" rx="12"/><text class="cls-4" transform="translate(1185.84 673.81)">20</text><text class="cls-4" transform="translate(190.83 676.72)">0</text></svg>
