<svg id="Layer_1" data-name="Layer 1" xmlns="http://www.w3.org/2000/svg" width="1550" height="970" viewBox="0 0 1550 970"><defs><style>.cls-1{fill:#afafaf;}.cls-2{fill:#fff;}.cls-3{font-size:137px;font-family:Kremlin;}</style></defs><title>point_1</title><ellipse cx="761.26" cy="485" rx="757.93" ry="481.72"/><path class="cls-1" d="M1133.29,159.64c-108.13,0-195.79,82.73-195.79,184.79a175.12,175.12,0,0,0,8.16,52.9l-450,375.9a80,80,0,0,0-10.09,112.38h0A80,80,0,0,0,597.9,895.7l457.16-381.84a205.23,205.23,0,0,0,78.23,15.35c108.13,0,195.79-82.73,195.79-184.78S1241.42,159.64,1133.29,159.64Z"/><polygon points="1070.55 275.7 1107.09 184.22 1193.88 137.64 1290.31 157.74 1351.26 235.12 1348.21 333.58 1282.59 407.04 1185.1 421.13 1101.36 369.26 1070.55 275.7"/><circle cx="441.67" cy="785" r="22.93"/><rect class="cls-2" x="1148.33" y="546.72" width="259" height="162" rx="12"/><rect class="cls-2" x="241.33" y="172.44" width="547" height="342.14" rx="12"/><text class="cls-3" transform="translate(1185.84 673.81)">15</text></svg>
