<svg id="Layer_1" data-name="Layer 1" xmlns="http://www.w3.org/2000/svg" viewBox="0 0 1370 690"><defs><style>.cls-1{fill:#7f1f1f;}.cls-2{fill:#fff;}.cls-3{fill:#fcfcfc;}</style></defs><title>settingsmenu</title><rect class="cls-1" x="3.5" y="0.5" width="1363" height="689" rx="152.56"/><path d="M347.43,152c13.38,8.7,26.91,11.87,32.84,11.87,4.14,0,5.11-1.66,5.11-3.31,0-1.93-1.25-2.76-3-3.18-4.83-1.24-18.77-2.76-29-11.73-5.24-4.69-8.83-11.18-8.83-20.83,0-20,15.45-33.68,40.71-33.68,12.14,0,26.49,3.18,35.6,7.87v32.71c-13-6.49-25.11-8.84-30.22-8.84-4,0-5.11,1.52-5.11,3,0,2.07,1.52,2.9,3.18,3.45,4.14,1.24,17.94,2.9,27.74,10.63,6.76,5.51,10.07,12.55,10.07,21.52,0,19.19-15.46,32.57-41.68,32.57-12.55,0-27.6-3-37.39-8.14Z"/><path d="M435.19,92.69h71.9v33.4H476.32v5.38h24.84v23.74H476.32v5.65H509V192.6H435.19Z"/><path d="M545.73,126.64H517.85V92.69h96.88v34H586.85v66H545.73Z"/><path d="M652,126.64H624.11V92.69H721v34H693.11v66H652Z"/><path d="M731.75,92.69h41.13V192.6H731.75Z"/><path d="M785,92.69h37.4l29.39,42.64.28-.13V92.69h37V192.6h-37.4L822.28,150l-.28.14v42.5H785Z"/><path d="M898.73,143.48c0-30.09,24.7-52.31,59.61-52.31,13.25,0,25.4,3.18,33.26,7.18v34.22c-8-3.45-20.42-6.76-29.67-6.76-14.63,0-22.22,8.28-22.22,19.05,0,11.72,9.25,18.76,19.33,18.76a13.23,13.23,0,0,0,4.13-.55V158h-9.93V135.61h40.85V185c-7.32,4.56-20.29,9.11-36.71,9.11C921.36,194.12,898.73,172.18,898.73,143.48Z"/><path d="M1006,152c13.39,8.7,26.91,11.87,32.85,11.87,4.14,0,5.1-1.66,5.1-3.31,0-1.93-1.24-2.76-3-3.18-4.83-1.24-18.77-2.76-29-11.73-5.25-4.69-8.83-11.18-8.83-20.83,0-20,15.45-33.68,40.71-33.68,12.14,0,26.49,3.18,35.6,7.87v32.71c-13-6.49-25.12-8.84-30.22-8.84-4,0-5.11,1.52-5.11,3,0,2.07,1.52,2.9,3.18,3.45,4.14,1.24,17.94,2.9,27.73,10.63,6.77,5.51,10.08,12.55,10.08,21.52,0,19.19-15.46,32.57-41.68,32.57-12.56,0-27.6-3-37.4-8.14Z"/><path class="cls-2" d="M341.43,148c13.38,8.7,26.91,11.87,32.84,11.87,4.14,0,5.11-1.66,5.11-3.31,0-1.93-1.25-2.76-3-3.18-4.83-1.24-18.77-2.76-29-11.73-5.24-4.69-8.83-11.18-8.83-20.83,0-20,15.45-33.68,40.71-33.68,12.14,0,26.49,3.18,35.6,7.87v32.71c-13-6.49-25.11-8.84-30.22-8.84-4,0-5.11,1.52-5.11,3,0,2.07,1.52,2.9,3.18,3.45,4.14,1.24,17.94,2.9,27.74,10.63,6.76,5.51,10.07,12.55,10.07,21.52,0,19.19-15.46,32.57-41.68,32.57-12.55,0-27.6-3-37.39-8.14Z"/><path class="cls-2" d="M429.19,88.69h71.9v33.4H470.32v5.38h24.84v23.74H470.32v5.65H503V188.6H429.19Z"/><path class="cls-2" d="M539.73,122.64H511.85V88.69h96.88v34H580.85v66H539.73Z"/><path class="cls-2" d="M646,122.64H618.11V88.69H715v34H687.11v66H646Z"/><path class="cls-2" d="M725.75,88.69h41.13V188.6H725.75Z"/><path class="cls-2" d="M779,88.69h37.4l29.39,42.64.28-.13V88.69h37V188.6h-37.4L816.28,146l-.28.14v42.5H779Z"/><path class="cls-2" d="M892.73,139.48c0-30.09,24.7-52.31,59.61-52.31,13.25,0,25.4,3.18,33.26,7.18v34.22c-8-3.45-20.42-6.76-29.67-6.76-14.63,0-22.22,8.28-22.22,19.05,0,11.72,9.25,18.76,19.33,18.76a13.23,13.23,0,0,0,4.13-.55V154h-9.93V131.61h40.85V181c-7.32,4.56-20.29,9.11-36.71,9.11C915.36,190.12,892.73,168.18,892.73,139.48Z"/><path class="cls-2" d="M1000,148c13.39,8.7,26.91,11.87,32.85,11.87,4.14,0,5.1-1.66,5.1-3.31,0-1.93-1.24-2.76-3-3.18-4.83-1.24-18.77-2.76-29-11.73-5.25-4.69-8.83-11.18-8.83-20.83,0-20,15.45-33.68,40.71-33.68,12.14,0,26.49,3.18,35.6,7.87v32.71c-13-6.49-25.12-8.84-30.22-8.84-4,0-5.11,1.52-5.11,3,0,2.07,1.52,2.9,3.18,3.45,4.14,1.24,17.94,2.9,27.73,10.63,6.77,5.51,10.08,12.55,10.08,21.52,0,19.19-15.46,32.57-41.68,32.57-12.56,0-27.6-3-37.4-8.14Z"/><path d="M185.73,287.76h16.68L211,298.68l8.34-10.92h16.2V331.2H217.7V310h-.12l-7.74,10.2L201.92,310h-.12V331.2H185.73Z"/><path d="M240.81,311.46v-23.7h17.87v22.5c0,4.08,1.32,7,5.46,7,4,0,5.34-2.52,5.34-6.9V287.76h16.08v23.46c0,6.66-1.68,10.86-4,13.62-4,4.8-11.16,7-18.54,7-7.61,0-14.33-2.4-18.17-6.9C242.73,322.44,240.81,318.54,240.81,311.46Z"/><path d="M290.9,313.56c5.82,3.78,11.7,5.16,14.28,5.16,1.8,0,2.22-.72,2.22-1.44s-.54-1.2-1.32-1.38c-2.1-.54-8.16-1.2-12.6-5.1a11.45,11.45,0,0,1-3.84-9.06c0-8.7,6.72-14.64,17.7-14.64a37.17,37.17,0,0,1,15.48,3.42v14.22c-5.64-2.82-10.92-3.84-13.14-3.84-1.74,0-2.22.66-2.22,1.32,0,.9.66,1.26,1.38,1.5,1.8.54,7.8,1.26,12.06,4.62a11.41,11.41,0,0,1,4.38,9.36c0,8.34-6.72,14.16-18.12,14.16-5.46,0-12-1.32-16.26-3.54Z"/><path d="M329.06,287.76h17.88V331.2H329.06Z"/><path d="M352.22,287.76H370.1v18.12l.12.06,7.38-18.18h19.56L386.9,307.92,398,331.2H377.9l-7.68-20.46-.12.06v20.4H352.22Z"/><path class="cls-2" d="M181.73,283.76h16.68L207,294.68l8.34-10.92h16.2V327.2H213.7V306h-.12l-7.74,10.2L197.92,306h-.12V327.2H181.73Z"/><path class="cls-2" d="M236.81,307.46v-23.7h17.87v22.5c0,4.08,1.32,7,5.46,7,4,0,5.34-2.52,5.34-6.9V283.76h16.08v23.46c0,6.66-1.68,10.86-4,13.62-4,4.8-11.16,7-18.54,7-7.61,0-14.33-2.4-18.17-6.9C238.73,318.44,236.81,314.54,236.81,307.46Z"/><path class="cls-2" d="M286.9,309.56c5.82,3.78,11.7,5.16,14.28,5.16,1.8,0,2.22-.72,2.22-1.44s-.54-1.2-1.32-1.38c-2.1-.54-8.16-1.2-12.6-5.1a11.45,11.45,0,0,1-3.84-9.06c0-8.7,6.72-14.64,17.7-14.64a37.17,37.17,0,0,1,15.48,3.42v14.22c-5.64-2.82-10.92-3.84-13.14-3.84-1.74,0-2.22.66-2.22,1.32,0,.9.66,1.26,1.38,1.5,1.8.54,7.8,1.26,12.06,4.62a11.41,11.41,0,0,1,4.38,9.36c0,8.34-6.72,14.16-18.12,14.16-5.46,0-12-1.32-16.26-3.54Z"/><path class="cls-2" d="M325.06,283.76h17.88V327.2H325.06Z"/><path class="cls-2" d="M348.22,283.76H366.1v18.12l.12.06,7.38-18.18h19.56L382.9,303.92,394,327.2H373.9l-7.68-20.46-.12.06v20.4H348.22Z"/><path d="M177.41,412.72h31.26v14.52H195.29v2.34h10.8v10.31h-10.8v2.46h14.22v13.8h-32.1Z"/><path d="M214,412.72h32.16v14.52H231.83v2.46h11.4v10.92h-11.4v15.53H214Z"/><path d="M250.79,412.72H283v14.52H268.67v2.46h11.4v10.92h-11.4v15.53H250.79Z"/><path d="M287.63,412.72h31.26v14.52H305.51v2.34h10.8v10.31h-10.8v2.46h14.22v13.8h-32.1Z"/><path d="M324.17,412.72h17.88v17.22l.12.06L349,412.72h19.38l-10.62,20.57a9.14,9.14,0,0,0,9.41,7.87,16.87,16.87,0,0,0,9.79-3.37v16c-2.7,1.74-7.62,3.06-12.6,3.06-11.34,0-19.92-6.72-22.14-16.85h-.12v16.19H324.17Z"/><path d="M383.45,427.48H371.33V412.72h42.12v14.76H401.33v28.67H383.45Z"/><path d="M418.13,412.72h31.25v14.52H436v2.34H446.8v10.31H436v2.46h14.21v13.8H418.13Z"/><path d="M454.67,412.72h17.82c8.93,0,21.11,2.22,21.11,13.8a12.11,12.11,0,0,1-5.46,10.31l9.9,19.32H479.27l-6.48-14.27h-.24v14.27H454.67Zm19.2,19.2c2.82,0,4.08-1.5,4.08-3.36s-1.33-3.3-4.08-3.3h-1.32v6.66Z"/><path class="cls-3" d="M174.41,408.72h31.26v14.52H192.29v2.34h10.8v10.31h-10.8v2.46h14.22v13.8h-32.1Z"/><path class="cls-3" d="M211,408.72h32.16v14.52H228.83v2.46h11.4v10.92h-11.4v15.53H211Z"/><path class="cls-3" d="M247.79,408.72H280v14.52H265.67v2.46h11.4v10.92h-11.4v15.53H247.79Z"/><path class="cls-3" d="M284.63,408.72h31.26v14.52H302.51v2.34h10.8v10.31h-10.8v2.46h14.22v13.8h-32.1Z"/><path class="cls-3" d="M321.17,408.72h17.88v17.22l.12.06L346,408.72h19.38l-10.62,20.57a9.14,9.14,0,0,0,9.41,7.87,16.87,16.87,0,0,0,9.79-3.37v16c-2.7,1.74-7.62,3.06-12.6,3.06-11.34,0-19.92-6.72-22.14-16.85h-.12v16.19H321.17Z"/><path class="cls-3" d="M380.45,423.48H368.33V408.72h42.12v14.76H398.33v28.67H380.45Z"/><path class="cls-3" d="M415.13,408.72h31.25v14.52H433v2.34H443.8v10.31H433v2.46h14.21v13.8H415.13Z"/><path class="cls-3" d="M451.67,408.72h17.82c8.93,0,21.11,2.22,21.11,13.8a12.11,12.11,0,0,1-5.46,10.31l9.9,19.32H476.27l-6.48-14.27h-.24v14.27H451.67Zm19.2,19.2c2.82,0,4.08-1.5,4.08-3.36s-1.33-3.3-4.08-3.3h-1.32v6.66Z"/></svg>
