<svg id="Layer_1" data-name="Layer 1" xmlns="http://www.w3.org/2000/svg" viewBox="0 0 150 150"><defs><style>.cls-1{fill:#d3d3d3;opacity:0.72;}</style></defs><title>settings_knap</title><path class="cls-1" d="M146.89,65.28a4.08,4.08,0,0,0-4.07-4.07h-7.25a62.07,62.07,0,0,0-7.77-18.82L133,37.17a4.08,4.08,0,0,0,0-5.75L118.62,17a4.08,4.08,0,0,0-5.75,0L107.6,22.3a62.29,62.29,0,0,0-18.77-7.64V7.18a4.08,4.08,0,0,0-4.07-4.07H64.41a4.09,4.09,0,0,0-4.07,4.07v7.66A61.76,61.76,0,0,0,42.1,22.47l-5.33-5.33a4.09,4.09,0,0,0-5.76,0L16.63,31.52a4.07,4.07,0,0,0,0,5.76L22,42.65a61.82,61.82,0,0,0-7.61,18.56H7.18a4.08,4.08,0,0,0-4.07,4.07V85.62a4.08,4.08,0,0,0,4.07,4.07h7.28a62,62,0,0,0,7.7,18.52l-4.49,4.5a4.08,4.08,0,0,0,0,5.75l14.39,14.39a4.08,4.08,0,0,0,5.75,0l4.55-4.55a62.06,62.06,0,0,0,18,7.46v7.06a4.09,4.09,0,0,0,4.07,4.07H84.76a4.08,4.08,0,0,0,4.07-4.07v-6.88a62.08,62.08,0,0,0,19.39-8l5,5a4.06,4.06,0,0,0,5.75,0l14.39-14.38a4.09,4.09,0,0,0,0-5.76l-5.22-5.22a61.89,61.89,0,0,0,7.32-17.9h7.32a4.08,4.08,0,0,0,4.07-4.07ZM74.72,99.91A24.93,24.93,0,1,1,99.65,75,24.95,24.95,0,0,1,74.72,99.91Z"/></svg>
