<svg id="Layer_1" data-name="Layer 1" xmlns="http://www.w3.org/2000/svg" width="1396" height="820" viewBox="0 0 1396 820"><defs><style>.cls-1{fill:#7daef4;}.cls-2{fill:#d6d6d6;}.cls-3,.cls-4,.cls-6{fill:none;}.cls-3,.cls-6{stroke:#000;stroke-miterlimit:10;}.cls-3{stroke-width:8px;}.cls-5{isolation:isolate;font-size:61px;font-family:ArialMT, Arial;}.cls-6{stroke-width:4px;}.cls-7{fill:#2e2f30;}.cls-8{fill:#2671f7;}</style></defs><title>sprite</title><path class="cls-1" d="M1319,87.57h-78.2a45.49,45.49,0,0,0-45.4,45.4v624.2a45.49,45.49,0,0,0,45.4,45.4H1319a45.49,45.49,0,0,0,45.4-45.4V133A45.49,45.49,0,0,0,1319,87.57Z"/><path class="cls-2" d="M1329.4,239.57l-92-3-42-17v157h.2c2.9,18.3,44.9,25,84.3,25,23.4,0,43.5-2,58.2-5.7,16.8-4.3,25.6-10.7,26.2-19.2h.1v-157Z"/><path class="cls-1" d="M1279.9,245.57c-40.8,0-84.5-7.1-84.5-27h12c0,.9,2.9,5.2,17.3,9.2,13.8,3.8,33.4,5.8,55.2,5.8,22.1,0,41.7-1.9,55.3-5.4,14.3-3.6,17.2-7.7,17.2-8.6h12c0,9-8.8,15.8-26.3,20.3C1323.4,243.57,1303.3,245.57,1279.9,245.57Z"/><ellipse class="cls-3" cx="1259.4" cy="320.07" rx="31" ry="49.5"/><rect class="cls-4" x="1296.4" y="331.57" width="71" height="96"/><text class="cls-5" transform="translate(1296.38 374.91)">2</text><path class="cls-6" d="M1362.4,705.57c0,4.4-33.5,8-81,8s-84-3.6-84-8"/><path class="cls-6" d="M1362.4,562.57c0,4.4-33.5,8-81,8s-84-3.6-84-8"/><path class="cls-6" d="M1362.4,419.57c0,4.4-33.5,8-81,8s-84-3.6-84-8"/><path class="cls-6" d="M1361.4,215.57c0,4.4-33.5,8-81,8s-84-3.6-84-8"/><path d="M1291.4,33.57h-24a12,12,0,0,0-12,12v43a12,12,0,0,0,12,12h24a12,12,0,0,0,12-12v-43A12,12,0,0,0,1291.4,33.57Z"/><path d="M1346.4,38.77c2.2,14.5-24.7,14.7-66.5,14.2-39.5-.4-69.6.3-66.5-14.2,3-14.2,29.8-14.2,66.5-14.2C1337.4,24.57,1345.2,31.07,1346.4,38.77Z"/><path class="cls-7" d="M1286.4,21.57h-15a12,12,0,0,0-12,12v1a12,12,0,0,0,12,12h15a12,12,0,0,0,12-12v-1A12,12,0,0,0,1286.4,21.57Z"/><path class="cls-1" d="M1086.1,86.9h-78.2a45.49,45.49,0,0,0-45.4,45.4V756.5a45.49,45.49,0,0,0,45.4,45.4h78.2a45.49,45.49,0,0,0,45.4-45.4V132.3A45.49,45.49,0,0,0,1086.1,86.9Z"/><path class="cls-8" d="M1131.8,712.9H962.2V759a42.89,42.89,0,0,0,42.9,42.9h84.2a42.46,42.46,0,0,0,42.5-42.5Z"/><path class="cls-2" d="M1096.5,238.9l-92-3-42-17v157h.2c2.9,18.3,44.9,25,84.3,25,23.4,0,43.5-2,58.2-5.7,16.8-4.3,25.6-10.7,26.2-19.2h.1V219Z"/><ellipse class="cls-3" cx="1026.5" cy="319.4" rx="31" ry="49.5"/><rect class="cls-4" x="1063.5" y="330.9" width="71" height="96"/><text class="cls-5" transform="translate(1063.52 374.19)">2</text><path class="cls-6" d="M1129.5,704.9c0,4.4-33.5,8-81,8s-84-3.6-84-8"/><path class="cls-6" d="M1129.5,561.9c0,4.4-33.5,8-81,8s-84-3.6-84-8"/><path class="cls-6" d="M1129.5,418.9c0,4.4-33.5,8-81,8s-84-3.6-84-8"/><path class="cls-1" d="M1047,244.9c-40.8,0-84.5-7.1-84.5-27h12c0,.9,2.9,5.2,17.3,9.2,13.8,3.8,33.4,5.8,55.2,5.8,22.1,0,41.7-1.9,55.3-5.4,14.3-3.6,17.2-7.7,17.2-8.6h12c0,9-8.8,15.8-26.3,20.3C1090.5,242.9,1070.4,244.9,1047,244.9Z"/><path class="cls-6" d="M1128.5,214.9c0,4.4-33.5,8-81,8s-84-3.6-84-8"/><path d="M1058.5,32.9h-24a12,12,0,0,0-12,12v43a12,12,0,0,0,12,12h24a12,12,0,0,0,12-12v-43A12,12,0,0,0,1058.5,32.9Z"/><path d="M1113.5,38.1c2.2,14.5-24.7,14.7-66.5,14.2-39.5-.4-69.6.3-66.5-14.2,3-14.2,29.8-14.2,66.5-14.2C1104.5,23.9,1112.3,30.3,1113.5,38.1Z"/><path class="cls-7" d="M1053.5,20.9h-15a12,12,0,0,0-12,12v1a12,12,0,0,0,12,12h15a12,12,0,0,0,12-12v-1A12,12,0,0,0,1053.5,20.9Z"/><path class="cls-1" d="M853,86.9H774.8a45.49,45.49,0,0,0-45.4,45.4V756.5a45.49,45.49,0,0,0,45.4,45.4H853a45.49,45.49,0,0,0,45.4-45.4V132.3A45.49,45.49,0,0,0,853,86.9Z"/><path class="cls-8" d="M898.7,569.9H729.1V759A42.89,42.89,0,0,0,772,801.9h84.2a42.46,42.46,0,0,0,42.5-42.5Z"/><path class="cls-2" d="M863.4,238.9l-92-3-42-17v157h.2c2.9,18.3,44.9,25,84.3,25,23.4,0,43.5-2,58.2-5.7,16.8-4.3,25.6-10.7,26.2-19.2h.1V219Z"/><ellipse class="cls-3" cx="793.4" cy="319.4" rx="31" ry="49.5"/><rect class="cls-4" x="830.4" y="330.9" width="71" height="96"/><text class="cls-5" transform="translate(830.38 374.19)">2</text><path class="cls-6" d="M896.4,704.9c0,4.4-33.5,8-81,8s-84-3.6-84-8"/><path class="cls-6" d="M896.4,561.9c0,4.4-33.5,8-81,8s-84-3.6-84-8"/><path class="cls-6" d="M896.4,418.9c0,4.4-33.5,8-81,8s-84-3.6-84-8"/><path class="cls-1" d="M813.9,244.9c-40.8,0-84.5-7.1-84.5-27h12c0,.9,2.9,5.2,17.3,9.2,13.8,3.8,33.4,5.8,55.2,5.8,22.1,0,41.7-1.9,55.3-5.4,14.3-3.6,17.2-7.7,17.2-8.6h12c0,9-8.8,15.8-26.3,20.3C857.4,242.9,837.3,244.9,813.9,244.9Z"/><path class="cls-6" d="M895.4,214.9c0,4.4-33.5,8-81,8s-84-3.6-84-8"/><path d="M825.4,32.9h-24a12,12,0,0,0-12,12v43a12,12,0,0,0,12,12h24a12,12,0,0,0,12-12v-43A12,12,0,0,0,825.4,32.9Z"/><path d="M880.4,38.1c2.2,14.5-24.7,14.7-66.5,14.2-39.5-.4-69.6.3-66.5-14.2,3-14.2,29.8-14.2,66.5-14.2C871.4,23.9,879.2,30.3,880.4,38.1Z"/><path class="cls-7" d="M820.4,20.9h-15a12,12,0,0,0-12,12v1a12,12,0,0,0,12,12h15a12,12,0,0,0,12-12v-1A12,12,0,0,0,820.4,20.9Z"/><path class="cls-1" d="M620.1,86.9H541.9a45.49,45.49,0,0,0-45.4,45.4V756.5a45.49,45.49,0,0,0,45.4,45.4h78.2a45.49,45.49,0,0,0,45.4-45.4V132.3A45.49,45.49,0,0,0,620.1,86.9Z"/><path class="cls-8" d="M665.8,426.9H496.2V759a42.89,42.89,0,0,0,42.9,42.9h84.2a42.46,42.46,0,0,0,42.5-42.5V426.9Z"/><path class="cls-2" d="M630.5,238.9l-92-3-42-17v157h.2c2.9,18.3,44.9,25,84.3,25,23.4,0,43.5-2,58.2-5.7,16.8-4.3,25.6-10.7,26.2-19.2h.1V219Z"/><ellipse class="cls-3" cx="560.5" cy="319.4" rx="31" ry="49.5"/><rect class="cls-4" x="597.5" y="330.9" width="71" height="96"/><text class="cls-5" transform="translate(597.52 374.19)">2</text><path class="cls-6" d="M663.5,704.9c0,4.4-33.5,8-81,8s-84-3.6-84-8"/><path class="cls-6" d="M663.5,561.9c0,4.4-33.5,8-81,8s-84-3.6-84-8"/><path class="cls-6" d="M663.5,418.9c0,4.4-33.5,8-81,8s-84-3.6-84-8"/><path class="cls-1" d="M581,244.9c-40.8,0-84.5-7.1-84.5-27h12c0,.9,2.9,5.2,17.3,9.2,13.8,3.8,33.4,5.8,55.2,5.8,22.1,0,41.7-1.9,55.3-5.4,14.3-3.6,17.2-7.7,17.2-8.6h12c0,9-8.8,15.8-26.3,20.3C624.5,242.9,604.4,244.9,581,244.9Z"/><path class="cls-6" d="M662.5,214.9c0,4.4-33.5,8-81,8s-84-3.6-84-8"/><path d="M592.5,32.9h-24a12,12,0,0,0-12,12v43a12,12,0,0,0,12,12h24a12,12,0,0,0,12-12v-43A12,12,0,0,0,592.5,32.9Z"/><path d="M647.5,38.1c2.2,14.5-24.7,14.7-66.5,14.2-39.5-.4-69.6.3-66.5-14.2,3-14.2,29.8-14.2,66.5-14.2C638.5,23.9,646.3,30.3,647.5,38.1Z"/><path class="cls-7" d="M587.5,20.9h-15a12,12,0,0,0-12,12v1a12,12,0,0,0,12,12h15a12,12,0,0,0,12-12v-1A12,12,0,0,0,587.5,20.9Z"/><path class="cls-1" d="M387.3,86.9H309a45.49,45.49,0,0,0-45.4,45.4V756.5A45.49,45.49,0,0,0,309,801.9h78.2a45.49,45.49,0,0,0,45.4-45.4V132.3A45.41,45.41,0,0,0,387.3,86.9Z"/><path class="cls-8" d="M433,222.9H263.4V759a42.89,42.89,0,0,0,42.9,42.9h84.2A42.46,42.46,0,0,0,433,759.4Z"/><path class="cls-2" d="M397.7,238.9l-92-3-42-17v157h.2c2.9,18.3,44.9,25,84.3,25,23.4,0,43.5-2,58.2-5.7,16.8-4.3,25.6-10.7,26.2-19.2h.1V219Z"/><ellipse class="cls-3" cx="327.7" cy="319.4" rx="31" ry="49.5"/><rect class="cls-4" x="364.7" y="330.9" width="71" height="96"/><text class="cls-5" transform="translate(364.66 374.19)">2</text><path class="cls-6" d="M430.7,704.9c0,4.4-33.5,8-81,8s-84-3.6-84-8"/><path class="cls-6" d="M430.7,561.9c0,4.4-33.5,8-81,8s-84-3.6-84-8"/><path class="cls-6" d="M430.7,418.9c0,4.4-33.5,8-81,8s-84-3.6-84-8"/><path class="cls-8" d="M348.2,244.9c-40.8,0-84.5-7.1-84.5-27h12c0,.9,2.9,5.2,17.3,9.2,13.8,3.8,33.4,5.8,55.2,5.8,22.1,0,41.7-1.9,55.3-5.4,14.3-3.6,17.2-7.7,17.2-8.6h12c0,9-8.8,15.8-26.3,20.3C391.7,242.9,371.5,244.9,348.2,244.9Z"/><path class="cls-6" d="M429.7,214.9c0,4.4-33.5,8-81,8s-84-3.6-84-8"/><path d="M359.7,32.9h-24a12,12,0,0,0-12,12v43a12,12,0,0,0,12,12h24a12,12,0,0,0,12-12v-43A12,12,0,0,0,359.7,32.9Z"/><path d="M414.7,38.1c2.2,14.5-24.7,14.7-66.5,14.2-39.5-.4-69.6.3-66.5-14.2,3-14.2,29.8-14.2,66.5-14.2C405.7,23.9,413.5,30.3,414.7,38.1Z"/><path class="cls-7" d="M354.7,20.9h-15a12,12,0,0,0-12,12v1a12,12,0,0,0,12,12h15a12,12,0,0,0,12-12v-1A12,12,0,0,0,354.7,20.9Z"/><path class="cls-8" d="M155.4,87.1H77.9a45.49,45.49,0,0,0-45.4,45.4V756.3a45.49,45.49,0,0,0,45.4,45.4h77.5a45.49,45.49,0,0,0,45.4-45.4V132.5A45.56,45.56,0,0,0,155.4,87.1Z"/><path class="cls-2" d="M166,239l-91.6-3L32.6,219V376h.2c2.9,18.3,44.7,24.9,84,24.9,23.3,0,43.3-2,58-5.7q25-6.45,26.1-19.2h.1V219.1Z"/><path class="cls-8" d="M116.7,245c-40.7,0-84.2-7.1-84.2-27h12c0,.9,2.9,5.2,17.3,9.2C75.4,231,95,233,116.7,233c22,0,41.5-1.9,55-5.4,14.2-3.6,17.2-7.7,17.2-8.6h12c0,9-8.8,15.8-26.2,20.3C160,243.1,139.9,245,116.7,245Z"/><ellipse class="cls-3" cx="96.2" cy="319.5" rx="30.9" ry="49.5"/><path class="cls-6" d="M198.8,704.7c0,4.4-33.4,8-80.7,8s-83.7-3.6-83.7-8"/><path class="cls-6" d="M198.8,561.8c0,4.4-33.4,8-80.7,8s-83.7-3.6-83.7-8"/><path class="cls-6" d="M198.8,418.9c0,4.4-33.4,8-80.7,8s-83.7-3.6-83.7-8"/><path class="cls-6" d="M197.8,215.1c0,4.4-33.4,8-80.7,8s-83.7-3.6-83.7-8"/><path d="M128.1,33.2H104.3a12,12,0,0,0-12,12v43a12,12,0,0,0,12,12h23.8a12,12,0,0,0,12-12v-43A12,12,0,0,0,128.1,33.2Z"/><path d="M182.9,38.4c2.2,14.5-24.6,14.7-66.2,14.2-39.3-.4-69.3.3-66.2-14.2,3-14.2,29.7-14.2,66.2-14.2C173.9,24.2,181.7,30.6,182.9,38.4Z"/><path class="cls-7" d="M123.1,21.2H108.3a12,12,0,0,0-12,12v1a12,12,0,0,0,12,12h14.8a12,12,0,0,0,12-12v-1A12,12,0,0,0,123.1,21.2Z"/><rect class="cls-4" x="0.2" y="-0.1" width="233" height="823"/><rect class="cls-4" x="233" y="-0.1" width="233" height="823"/><rect class="cls-4" x="465.9" y="-0.1" width="233" height="823"/><rect class="cls-4" x="698.7" y="-0.1" width="233" height="823"/><rect class="cls-4" x="931.9" y="-0.1" width="233" height="823"/><rect class="cls-4" x="1164.9" y="-0.2" width="233" height="823"/><text class="cls-5" transform="translate(133.65 376.8)">2</text></svg>
