<svg id="Layer_1" data-name="Layer 1" xmlns="http://www.w3.org/2000/svg" viewBox="0 0 540 640"><defs><style>.cls-1{fill:#afafaf;}.cls-2{fill:#fff;}.cls-3{font-size:112.37px;font-family:Kremlin;}</style></defs><title>tid</title><path class="cls-1" d="M465.73,187.46a32,32,0,0,0-48.1-40.64A266.35,266.35,0,0,0,299,104.07V76.5h32a12,12,0,0,0,12-12v-51a12,12,0,0,0-12-12H210a12,12,0,0,0-12,12v51a12,12,0,0,0,12,12h29v27.8a266.09,266.09,0,0,0-113,40.12A32,32,0,0,0,79,182.56,267.09,267.09,0,0,0,2,370.5c0,148,120,268,268,268s268-120,268-268A267,267,0,0,0,465.73,187.46Z"/><rect class="cls-2" x="55" y="251.5" width="430" height="138" rx="44.83"/><text class="cls-3" transform="translate(143.17 363.97)">0:49</text></svg>
