<svg id="Layer_1" data-name="Layer 1" xmlns="http://www.w3.org/2000/svg" viewBox="0 0 530 100"><defs><style>.cls-1{fill:#a09f9f;}.cls-2{fill:#f7f7f7;}</style></defs><title>tilbage knap</title><rect class="cls-1" x="3" y="1" width="524" height="98" rx="49"/><path d="M133.41,47.35H121.29V32.59h42.12V47.35H151.29V76H133.41Z"/><path d="M168.09,32.59H186V76H168.09Z"/><path d="M191.25,32.59h17.88v28h13.44V76H191.25Z"/><path d="M227.25,32.59h17.4c6.54,0,20.34.66,20.34,11,0,3.66-1.74,7-6.54,8.7v.12c6.3,2.34,7.74,6.42,7.74,10.32C266.19,74.23,254,76,245.49,76H227.25Zm18.54,17.64c2.28,0,3.36-1.2,3.36-2.7s-1.14-2.7-3.36-2.7h-.66v5.4Zm.12,14.16c2.82,0,4.14-1.5,4.14-3.36s-1.38-3.36-4.14-3.36h-.78v6.72Z"/><path d="M282.21,32.59h17.1L315.87,76H296.55l-1.5-5.7h-10L283.41,76H265.65Zm10,26.82-1.92-8.82h-.12l-1.92,8.82Z"/><path d="M313.71,54.67c0-13.08,10.74-22.74,25.92-22.74a33.34,33.34,0,0,1,14.46,3.12V49.93A37.17,37.17,0,0,0,341.19,47c-6.36,0-9.66,3.6-9.66,8.28,0,5.1,4,8.16,8.4,8.16a5.85,5.85,0,0,0,1.8-.24V61h-4.32V51.25h17.76V72.73c-3.18,2-8.82,4-16,4C323.55,76.69,313.71,67.15,313.71,54.67Z"/><path d="M360.21,32.59h31.26V47.11H378.09v2.34h10.8V59.77h-10.8v2.46h14.22V76h-32.1Z"/><path class="cls-2" d="M130.41,45.35H118.29V30.59h42.12V45.35H148.29V74H130.41Z"/><path class="cls-2" d="M165.09,30.59H183V74H165.09Z"/><path class="cls-2" d="M188.25,30.59h17.88v28h13.44V74H188.25Z"/><path class="cls-2" d="M224.25,30.59h17.4c6.54,0,20.34.66,20.34,11,0,3.66-1.74,7-6.54,8.7v.12c6.3,2.34,7.74,6.42,7.74,10.32C263.19,72.23,251,74,242.49,74H224.25Zm18.54,17.64c2.28,0,3.36-1.2,3.36-2.7s-1.14-2.7-3.36-2.7h-.66v5.4Zm.12,14.16c2.82,0,4.14-1.5,4.14-3.36s-1.38-3.36-4.14-3.36h-.78v6.72Z"/><path class="cls-2" d="M279.21,30.59h17.1L312.87,74H293.55l-1.5-5.7h-10L280.41,74H262.65Zm10,26.82-1.92-8.82h-.12l-1.92,8.82Z"/><path class="cls-2" d="M310.71,52.67c0-13.08,10.74-22.74,25.92-22.74a33.34,33.34,0,0,1,14.46,3.12V47.93A37.17,37.17,0,0,0,338.19,45c-6.36,0-9.66,3.6-9.66,8.28,0,5.1,4,8.16,8.4,8.16a5.85,5.85,0,0,0,1.8-.24V59h-4.32V49.25h17.76V70.73c-3.18,2-8.82,4-16,4C320.55,74.69,310.71,65.15,310.71,52.67Z"/><path class="cls-2" d="M357.21,30.59h31.26V45.11H375.09v2.34h10.8V57.77h-10.8v2.46h14.22V74h-32.1Z"/></svg>