<svg id="Layer_1" data-name="Layer 1" xmlns="http://www.w3.org/2000/svg" viewBox="0 0 770 280"><defs><style>.cls-1{fill:#fff;}</style></defs><title>titel</title><path d="M189,34.85h85.73l83,217.8H260.89l-7.52-28.58H203.43L195,252.65H106Zm49.93,134.47-9.62-44.22h-.6l-9.63,44.22Z"/><path d="M372.81,34.85h89.35C507,34.85,568.05,46,568.05,104c0,23.47-11.12,40.31-27.37,51.74l49.64,96.87H496.16l-32.49-71.6h-1.21v71.6H372.81Zm96.27,96.27c14.14,0,20.46-7.53,20.46-16.85s-6.62-16.55-20.46-16.55h-6.62v33.4Z"/><path d="M593.34,164.21c29.18,18.95,58.66,25.87,71.6,25.87,9,0,11.12-3.61,11.12-7.22,0-4.21-2.7-6-6.61-6.92-10.53-2.71-40.92-6-63.18-25.57C594.84,140.14,587,126,587,104.94c0-43.62,33.69-73.4,88.74-73.4,26.48,0,57.76,6.92,77.62,17.15V120c-28.28-14.14-54.75-19.26-65.88-19.26-8.73,0-11.14,3.31-11.14,6.62,0,4.51,3.31,6.32,6.93,7.52,9,2.71,39.1,6.32,60.46,23.17,14.74,12,22,27.37,22,46.92,0,41.82-33.69,71-90.85,71-27.37,0-60.17-6.62-81.52-17.75Z"/><path d="M63.06,16.46h37.17l19.26,24.33,18.58-24.33h36.1v96.8H134.33V66.06h-.27L116.81,88.79,99.16,66.06H98.9v47.2H63.06Z"/><path d="M15.29,102.69H87.67V216.12h54.41v62.42H15.29Z"/><path class="cls-1" d="M178,19.85h85.73l83,217.8H249.89l-7.52-28.58H192.43L184,237.65H95Zm49.93,134.47-9.62-44.22h-.6l-9.63,44.22Z"/><path class="cls-1" d="M361.81,19.85h89.35C496,19.85,557.05,31,557.05,89c0,23.47-11.12,40.31-27.37,51.74l49.64,96.87H485.16l-32.49-71.6h-1.21v71.6H361.81Zm96.27,96.27c14.14,0,20.46-7.53,20.46-16.85s-6.62-16.55-20.46-16.55h-6.62v33.4Z"/><path class="cls-1" d="M582.34,149.21c29.18,18.95,58.66,25.87,71.6,25.87,9,0,11.12-3.61,11.12-7.22,0-4.21-2.7-6-6.61-6.92-10.53-2.71-40.92-6-63.18-25.57C583.84,125.14,576,111,576,89.94c0-43.62,33.69-73.4,88.74-73.4,26.48,0,57.76,6.92,77.62,17.15V105C714.1,90.85,687.63,85.73,676.5,85.73c-8.73,0-11.14,3.31-11.14,6.62,0,4.51,3.31,6.32,6.93,7.52,9,2.71,39.1,6.32,60.46,23.17,14.74,12,22,27.37,22,46.92,0,41.82-33.69,71-90.85,71-27.37,0-60.17-6.62-81.52-17.75Z"/><path class="cls-1" d="M52.06,1.46H89.23l19.26,24.33L127.07,1.46h36.1v96.8H123.33V51.06h-.27L105.81,73.79,88.16,51.06H87.9v47.2H52.06Z"/><path class="cls-1" d="M4.29,87.69H76.67V201.12h54.41v62.42H4.29Z"/></svg>
