<?xml version="1.0" encoding="utf-8"?>
<!-- Generator: Adobe Illustrator 23.0.0, SVG Export Plug-In . SVG Version: 6.00 Build 0)  -->
<svg version="1.1" id="Layer_1" xmlns="http://www.w3.org/2000/svg" xmlns:xlink="http://www.w3.org/1999/xlink" x="0px" y="0px"
	 viewBox="0 0 1396 820" style="enable-background:new 0 0 1396 820;" xml:space="preserve">
<style type="text/css">
	.st0{fill:#7DAEF4;}
	.st1{fill:#D6D6D6;}
	.st2{fill:none;stroke:#000000;stroke-width:8;stroke-miterlimit:10;}
	.st3{fill:none;}
	.st4{font-family:'MyriadPro-Regular';}
	.st5{font-size:61px;}
	.st6{fill:none;stroke:#000000;stroke-width:4;stroke-miterlimit:10;}
	.st7{fill:#2E2F30;}
	.st8{fill:#2671F7;}
</style>
<title>forfraknap</title>
<g>
	<path class="st0" d="M1319,71.3h-78.2c-25,0-45.4,20.4-45.4,45.4v624.2c0,25,20.4,45.4,45.4,45.4h78.2c25,0,45.4-20.4,45.4-45.4
		V116.7C1364.4,91.7,1344,71.3,1319,71.3z"/>
	<path class="st1" d="M1329.4,223.3l-92-3l-42-17v157l0.2,0c2.9,18.3,44.9,25,84.3,25c23.4,0,43.5-2,58.2-5.7
		c16.8-4.3,25.6-10.7,26.2-19.2l0.1,0v-157L1329.4,223.3z"/>
	<g>
		<path class="st0" d="M1279.9,229.3c-40.8,0-84.5-7.1-84.5-27h12c0,0.9,2.9,5.2,17.3,9.2c13.8,3.8,33.4,5.8,55.2,5.8
			c22.1,0,41.7-1.9,55.3-5.4c14.3-3.6,17.2-7.7,17.2-8.6h12c0,9-8.8,15.8-26.3,20.3C1323.4,227.3,1303.3,229.3,1279.9,229.3z"/>
	</g>
	<ellipse class="st2" cx="1259.4" cy="303.8" rx="31" ry="49.5"/>
	<rect x="1296.4" y="315.3" class="st3" width="71" height="96"/>
	<text transform="matrix(1 0 0 1 1296.3796 358.6326)" class="st4 st5">2</text>
	<path class="st6" d="M1362.4,689.3c0,4.4-33.5,8-81,8s-84-3.6-84-8"/>
	<path class="st6" d="M1362.4,546.3c0,4.4-33.5,8-81,8s-84-3.6-84-8"/>
	<path class="st6" d="M1362.4,403.3c0,4.4-33.5,8-81,8s-84-3.6-84-8"/>
	<path class="st6" d="M1361.4,199.3c0,4.4-33.5,8-81,8s-84-3.6-84-8"/>
	<path d="M1291.4,17.3h-24c-6.6,0-12,5.4-12,12v43c0,6.6,5.4,12,12,12h24c6.6,0,12-5.4,12-12v-43C1303.4,22.7,1298,17.3,1291.4,17.3
		z"/>
	<path d="M1346.4,22.5c2.2,14.5-24.7,14.7-66.5,14.2c-39.5-0.4-69.6,0.3-66.5-14.2c3-14.2,29.8-14.2,66.5-14.2
		C1337.4,8.3,1345.2,14.8,1346.4,22.5z"/>
	<path class="st7" d="M1286.4,5.3h-15c-6.6,0-12,5.4-12,12v1c0,6.6,5.4,12,12,12h15c6.6,0,12-5.4,12-12v-1
		C1298.4,10.7,1293,5.3,1286.4,5.3z"/>
	<path d="M1232.3,15.7"/>
</g>
<g>
	<path class="st0" d="M1086.1,86.9h-78.2c-25,0-45.4,20.4-45.4,45.4v624.2c0,25,20.4,45.4,45.4,45.4h78.2c25,0,45.4-20.4,45.4-45.4
		V132.3C1131.5,107.3,1111.1,86.9,1086.1,86.9z"/>
	<path class="st8" d="M1131.8,712.9H962.2V759c0,23.7,19.2,42.9,42.9,42.9h84.2c23.5,0,42.5-19,42.5-42.5V712.9z"/>
	<path class="st1" d="M1096.5,238.9l-92-3l-42-17v157l0.2,0c2.9,18.3,44.9,25,84.3,25c23.4,0,43.5-2,58.2-5.7
		c16.8-4.3,25.6-10.7,26.2-19.2l0.1,0v-157L1096.5,238.9z"/>
	<ellipse class="st2" cx="1026.5" cy="319.4" rx="31" ry="49.5"/>
	<rect x="1063.5" y="330.9" class="st3" width="71" height="96"/>
	<text transform="matrix(1 0 0 1 1063.5178 374.1931)" class="st4 st5">2</text>
	<path class="st6" d="M1129.5,704.9c0,4.4-33.5,8-81,8c-47.5,0-84-3.6-84-8"/>
	<path class="st6" d="M1129.5,561.9c0,4.4-33.5,8-81,8c-47.5,0-84-3.6-84-8"/>
	<path class="st6" d="M1129.5,418.9c0,4.4-33.5,8-81,8c-47.5,0-84-3.6-84-8"/>
	<g>
		<path class="st0" d="M1047,244.9c-40.8,0-84.5-7.1-84.5-27h12c0,0.9,2.9,5.2,17.3,9.2c13.8,3.8,33.4,5.8,55.2,5.8
			c22.1,0,41.7-1.9,55.3-5.4c14.3-3.6,17.2-7.7,17.2-8.6h12c0,9-8.8,15.8-26.3,20.3C1090.5,242.9,1070.4,244.9,1047,244.9z"/>
	</g>
	<path class="st6" d="M1128.5,214.9c0,4.4-33.5,8-81,8c-47.5,0-84-3.6-84-8"/>
	<path d="M1058.5,32.9h-24c-6.6,0-12,5.4-12,12v43c0,6.6,5.4,12,12,12h24c6.6,0,12-5.4,12-12v-43
		C1070.5,38.3,1065.1,32.9,1058.5,32.9z"/>
	<path d="M1113.5,38.1c2.2,14.5-24.7,14.7-66.5,14.2c-39.5-0.4-69.6,0.3-66.5-14.2c3-14.2,29.8-14.2,66.5-14.2
		C1104.5,23.9,1112.3,30.3,1113.5,38.1z"/>
	<path class="st7" d="M1053.5,20.9h-15c-6.6,0-12,5.4-12,12v1c0,6.6,5.4,12,12,12h15c6.6,0,12-5.4,12-12v-1
		C1065.5,26.3,1060.1,20.9,1053.5,20.9z"/>
</g>
<g>
	<path class="st0" d="M853,86.9h-78.2c-25,0-45.4,20.4-45.4,45.4v624.2c0,25,20.4,45.4,45.4,45.4H853c25,0,45.4-20.4,45.4-45.4
		V132.3C898.4,107.3,878,86.9,853,86.9z"/>
	<path class="st8" d="M898.7,569.9H729.1V759c0,23.7,19.2,42.9,42.9,42.9h84.2c23.5,0,42.5-19,42.5-42.5V569.9z"/>
	<path class="st1" d="M863.4,238.9l-92-3l-42-17v157l0.2,0c2.9,18.3,44.9,25,84.3,25c23.4,0,43.5-2,58.2-5.7
		c16.8-4.3,25.6-10.7,26.2-19.2l0.1,0v-157L863.4,238.9z"/>
	<ellipse class="st2" cx="793.4" cy="319.4" rx="31" ry="49.5"/>
	<rect x="830.4" y="330.9" class="st3" width="71" height="96"/>
	<text transform="matrix(1 0 0 1 830.3831 374.1931)" class="st4 st5">2</text>
	<path class="st6" d="M896.4,704.9c0,4.4-33.5,8-81,8c-47.5,0-84-3.6-84-8"/>
	<path class="st6" d="M896.4,561.9c0,4.4-33.5,8-81,8c-47.5,0-84-3.6-84-8"/>
	<path class="st6" d="M896.4,418.9c0,4.4-33.5,8-81,8c-47.5,0-84-3.6-84-8"/>
	<g>
		<path class="st0" d="M813.9,244.9c-40.8,0-84.5-7.1-84.5-27h12c0,0.9,2.9,5.2,17.3,9.2c13.8,3.8,33.4,5.8,55.2,5.8
			c22.1,0,41.7-1.9,55.3-5.4c14.3-3.6,17.2-7.7,17.2-8.6h12c0,9-8.8,15.8-26.3,20.3C857.4,242.9,837.3,244.9,813.9,244.9z"/>
	</g>
	<path class="st6" d="M895.4,214.9c0,4.4-33.5,8-81,8c-47.5,0-84-3.6-84-8"/>
	<path d="M761.3,52.3"/>
	<path d="M825.4,32.9h-24c-6.6,0-12,5.4-12,12v43c0,6.6,5.4,12,12,12h24c6.6,0,12-5.4,12-12v-43C837.4,38.3,832,32.9,825.4,32.9z"/>
	<path d="M880.4,38.1c2.2,14.5-24.7,14.7-66.5,14.2c-39.5-0.4-69.6,0.3-66.5-14.2c3-14.2,29.8-14.2,66.5-14.2
		C871.4,23.9,879.2,30.3,880.4,38.1z"/>
	<path class="st7" d="M820.4,20.9h-15c-6.6,0-12,5.4-12,12v1c0,6.6,5.4,12,12,12h15c6.6,0,12-5.4,12-12v-1
		C832.4,26.3,827,20.9,820.4,20.9z"/>
	<path d="M809.3,22.3"/>
</g>
<g>
	<path class="st0" d="M620.1,86.9h-78.2c-25,0-45.4,20.4-45.4,45.4v624.2c0,25,20.4,45.4,45.4,45.4h78.2c25,0,45.4-20.4,45.4-45.4
		V132.3C665.5,107.3,645.1,86.9,620.1,86.9z"/>
	<path class="st8" d="M665.8,426.9H496.2V759c0,23.7,19.2,42.9,42.9,42.9h84.2c23.5,0,42.5-19,42.5-42.5V426.9z"/>
	<path class="st1" d="M630.5,238.9l-92-3l-42-17v157l0.2,0c2.9,18.3,44.9,25,84.3,25c23.4,0,43.5-2,58.2-5.7
		c16.8-4.3,25.6-10.7,26.2-19.2l0.1,0v-157L630.5,238.9z"/>
	<ellipse class="st2" cx="560.5" cy="319.4" rx="31" ry="49.5"/>
	<rect x="597.5" y="330.9" class="st3" width="71" height="96"/>
	<text transform="matrix(1 0 0 1 597.5212 374.1932)" class="st4 st5">2</text>
	<path class="st6" d="M663.5,704.9c0,4.4-33.5,8-81,8c-47.5,0-84-3.6-84-8"/>
	<path class="st6" d="M663.5,561.9c0,4.4-33.5,8-81,8c-47.5,0-84-3.6-84-8"/>
	<path class="st6" d="M663.5,418.9c0,4.4-33.5,8-81,8c-47.5,0-84-3.6-84-8"/>
	<g>
		<path class="st0" d="M581,244.9c-40.8,0-84.5-7.1-84.5-27h12c0,0.9,2.9,5.2,17.3,9.2c13.8,3.8,33.4,5.8,55.2,5.8
			c22.1,0,41.7-1.9,55.3-5.4c14.3-3.6,17.2-7.7,17.2-8.6h12c0,9-8.8,15.8-26.3,20.3C624.5,242.9,604.4,244.9,581,244.9z"/>
	</g>
	<path class="st6" d="M662.5,214.9c0,4.4-33.5,8-81,8c-47.5,0-84-3.6-84-8"/>
	<path d="M528.4,52.3"/>
	<path d="M592.5,32.9h-24c-6.6,0-12,5.4-12,12v43c0,6.6,5.4,12,12,12h24c6.6,0,12-5.4,12-12v-43C604.5,38.3,599.1,32.9,592.5,32.9z"
		/>
	<path d="M647.5,38.1c2.2,14.5-24.7,14.7-66.5,14.2c-39.5-0.4-69.6,0.3-66.5-14.2c3-14.2,29.8-14.2,66.5-14.2
		C638.5,23.9,646.3,30.3,647.5,38.1z"/>
	<path class="st7" d="M587.5,20.9h-15c-6.6,0-12,5.4-12,12v1c0,6.6,5.4,12,12,12h15c6.6,0,12-5.4,12-12v-1
		C599.5,26.3,594.1,20.9,587.5,20.9z"/>
</g>
<g>
	<path class="st0" d="M387.3,86.9H309c-25,0-45.4,20.4-45.4,45.4v624.2c0,25,20.4,45.4,45.4,45.4h78.2c25,0,45.4-20.4,45.4-45.4
		V132.3C432.7,107.3,412.2,86.9,387.3,86.9z"/>
	<path class="st8" d="M433,222.9H263.4V759c0,23.7,19.2,42.9,42.9,42.9h84.2c23.5,0,42.5-19,42.5-42.5V222.9z"/>
	<path class="st1" d="M397.7,238.9l-92-3l-42-17v157l0.2,0c2.9,18.3,44.9,25,84.3,25c23.4,0,43.5-2,58.2-5.7
		c16.8-4.3,25.6-10.7,26.2-19.2l0.1,0v-157L397.7,238.9z"/>
	<ellipse class="st2" cx="327.7" cy="319.4" rx="31" ry="49.5"/>
	<rect x="364.7" y="330.9" class="st3" width="71" height="96"/>
	<text transform="matrix(1 0 0 1 364.6594 374.1931)" class="st4 st5">2</text>
	<path class="st6" d="M430.7,704.9c0,4.4-33.5,8-81,8s-84-3.6-84-8"/>
	<path class="st6" d="M430.7,561.9c0,4.4-33.5,8-81,8s-84-3.6-84-8"/>
	<path class="st6" d="M430.7,418.9c0,4.4-33.5,8-81,8s-84-3.6-84-8"/>
	<g>
		<path class="st8" d="M348.2,244.9c-40.8,0-84.5-7.1-84.5-27h12c0,0.9,2.9,5.2,17.3,9.2c13.8,3.8,33.4,5.8,55.2,5.8
			c22.1,0,41.7-1.9,55.3-5.4c14.3-3.6,17.2-7.7,17.2-8.6h12c0,9-8.8,15.8-26.3,20.3C391.7,242.9,371.5,244.9,348.2,244.9z"/>
	</g>
	<path class="st6" d="M429.7,214.9c0,4.4-33.5,8-81,8s-84-3.6-84-8"/>
	<path d="M295.6,52.3"/>
	<path d="M359.7,32.9h-24c-6.6,0-12,5.4-12,12v43c0,6.6,5.4,12,12,12h24c6.6,0,12-5.4,12-12v-43C371.7,38.3,366.3,32.9,359.7,32.9z"
		/>
	<path d="M414.7,38.1c2.2,14.5-24.7,14.7-66.5,14.2c-39.5-0.4-69.6,0.3-66.5-14.2c3-14.2,29.8-14.2,66.5-14.2
		C405.7,23.9,413.5,30.3,414.7,38.1z"/>
	<path class="st7" d="M354.7,20.9h-15c-6.6,0-12,5.4-12,12v1c0,6.6,5.4,12,12,12h15c6.6,0,12-5.4,12-12v-1
		C366.7,26.3,361.3,20.9,354.7,20.9z"/>
</g>
<g>
	<path class="st8" d="M155.4,87.1H77.9c-25,0-45.4,20.4-45.4,45.4v623.8c0,25,20.4,45.4,45.4,45.4h77.5c25,0,45.4-20.4,45.4-45.4
		V132.5C200.8,107.6,180.4,87.1,155.4,87.1z"/>
	<path class="st1" d="M166,239l-91.6-3l-41.8-17V376l0.2,0c2.9,18.3,44.7,24.9,84,24.9c23.3,0,43.3-2,58-5.7
		c16.7-4.3,25.4-10.7,26.1-19.2l0.1,0V219.1L166,239z"/>
	<g>
		<path class="st8" d="M116.7,245c-40.7,0-84.2-7.1-84.2-27h12c0,0.9,2.9,5.2,17.3,9.2C75.4,231,95,233,116.7,233
			c22,0,41.5-1.9,55-5.4c14.2-3.6,17.2-7.7,17.2-8.6h12c0,9-8.8,15.8-26.2,20.3C160,243.1,139.9,245,116.7,245z"/>
	</g>
	<ellipse class="st2" cx="96.2" cy="319.5" rx="30.9" ry="49.5"/>
	<path class="st6" d="M198.8,704.7c0,4.4-33.4,8-80.7,8s-83.7-3.6-83.7-8"/>
	<path class="st6" d="M198.8,561.8c0,4.4-33.4,8-80.7,8s-83.7-3.6-83.7-8"/>
	<path class="st6" d="M198.8,418.9c0,4.4-33.4,8-80.7,8s-83.7-3.6-83.7-8"/>
	<path class="st6" d="M197.8,215.1c0,4.4-33.4,8-80.7,8s-83.7-3.6-83.7-8"/>
	<path d="M128.1,33.2h-23.8c-6.6,0-12,5.4-12,12v43c0,6.6,5.4,12,12,12h23.8c6.6,0,12-5.4,12-12v-43
		C140.1,38.6,134.7,33.2,128.1,33.2z"/>
	<path d="M182.9,38.4c2.2,14.5-24.6,14.7-66.2,14.2c-39.3-0.4-69.3,0.3-66.2-14.2c3-14.2,29.7-14.2,66.2-14.2
		C173.9,24.2,181.7,30.6,182.9,38.4z"/>
	<path class="st7" d="M123.1,21.2h-14.8c-6.6,0-12,5.4-12,12v1c0,6.6,5.4,12,12,12h14.8c6.6,0,12-5.4,12-12v-1
		C135.1,26.6,129.7,21.2,123.1,21.2z"/>
</g>
<rect x="0.2" y="-0.1" class="st3" width="233" height="823"/>
<g>
	<path class="st8" d="M-1563.7-114.9h-77.5c-25,0-45.4,20.4-45.4,45.4v623.8c0,25,20.4,45.4,45.4,45.4h77.5
		c25,0,45.4-20.4,45.4-45.4V-69.5C-1518.3-94.5-1538.7-114.9-1563.7-114.9z"/>
	<path class="st1" d="M-1553.2,37l-91.6-3l-41.8-17v156.9l0.2,0c2.9,18.3,44.7,24.9,84,24.9c23.3,0,43.3-2,58-5.7
		c16.7-4.3,25.4-10.7,26.1-19.2l0.1,0V17L-1553.2,37z"/>
	<g>
		<path class="st8" d="M-1602.5,43c-40.7,0-84.2-7.1-84.2-27h12c0,0.9,2.9,5.2,17.3,9.2c13.7,3.8,33.2,5.8,54.9,5.8
			c22,0,41.5-1.9,55-5.4c14.2-3.6,17.2-7.7,17.2-8.6h12c0,9-8.8,15.8-26.2,20.3C-1559.1,41-1579.2,43-1602.5,43z"/>
	</g>
	<ellipse class="st2" cx="-1622.9" cy="117.5" rx="30.9" ry="49.5"/>
	<path class="st6" d="M-1520.3,502.7c0,4.4-33.4,8-80.7,8s-83.7-3.6-83.7-8"/>
	<path class="st6" d="M-1520.3,359.8c0,4.4-33.4,8-80.7,8s-83.7-3.6-83.7-8"/>
	<path class="st6" d="M-1520.3,216.9c0,4.4-33.4,8-80.7,8s-83.7-3.6-83.7-8"/>
	<path class="st6" d="M-1521.3,13c0,4.4-33.4,8-80.7,8s-83.7-3.6-83.7-8"/>
	<path d="M-1591.1-168.8h-23.8c-6.6,0-12,5.4-12,12v43c0,6.6,5.4,12,12,12h23.8c6.6,0,12-5.4,12-12v-43
		C-1579.1-163.4-1584.5-168.8-1591.1-168.8z"/>
	<path d="M-1536.2-163.6c2.2,14.5-24.6,14.7-66.2,14.2c-39.3-0.4-69.3,0.3-66.2-14.2c3-14.2,29.7-14.2,66.2-14.2
		C-1545.2-177.8-1537.4-171.4-1536.2-163.6z"/>
	<path class="st7" d="M-1596-180.8h-14.8c-6.6,0-12,5.4-12,12v1c0,6.6,5.4,12,12,12h14.8c6.6,0,12-5.4,12-12v-1
		C-1584-175.4-1589.4-180.8-1596-180.8z"/>
</g>
<rect x="233" y="-0.1" class="st3" width="233" height="823"/>
<g>
	<path class="st8" d="M-128.2,1003.9h-77.5c-25,0-45.4,20.4-45.4,45.4v623.8c0,25,20.4,45.4,45.4,45.4h77.5
		c25,0,45.4-20.4,45.4-45.4v-623.8C-82.8,1024.3-103.2,1003.9-128.2,1003.9z"/>
	<path class="st1" d="M-117.7,1155.8l-91.6-3l-41.8-17v156.9l0.2,0c2.9,18.3,44.7,24.9,84,24.9c23.3,0,43.3-2,58-5.7
		c16.7-4.3,25.4-10.7,26.1-19.2l0.1,0v-156.9L-117.7,1155.8z"/>
	<g>
		<path class="st8" d="M-167,1161.8c-40.7,0-84.2-7.1-84.2-27h12c0,0.9,2.9,5.2,17.3,9.2c13.7,3.8,33.2,5.8,54.9,5.8
			c22,0,41.5-1.9,55-5.4c14.2-3.6,17.2-7.7,17.2-8.6h12c0,9-8.8,15.8-26.2,20.3C-123.6,1159.8-143.7,1161.8-167,1161.8z"/>
	</g>
	<ellipse class="st2" cx="-187.4" cy="1236.3" rx="30.9" ry="49.5"/>
	<path class="st6" d="M-84.8,1621.5c0,4.4-33.4,8-80.7,8s-83.7-3.6-83.7-8"/>
	<path class="st6" d="M-84.8,1478.6c0,4.4-33.4,8-80.7,8s-83.7-3.6-83.7-8"/>
	<path class="st6" d="M-84.8,1335.7c0,4.4-33.4,8-80.7,8s-83.7-3.6-83.7-8"/>
	<path class="st6" d="M-85.8,1131.8c0,4.4-33.4,8-80.7,8s-83.7-3.6-83.7-8"/>
	<path d="M-155.6,950h-23.8c-6.6,0-12,5.4-12,12v43c0,6.6,5.4,12,12,12h23.8c6.6,0,12-5.4,12-12v-43C-143.6,955.4-149,950-155.6,950
		z"/>
	<path d="M-100.7,955.2c2.2,14.5-24.6,14.7-66.2,14.2c-39.3-0.4-69.3,0.3-66.2-14.2c3-14.2,29.7-14.2,66.2-14.2
		C-109.7,941-101.9,947.4-100.7,955.2z"/>
	<path class="st7" d="M-160.5,938h-14.8c-6.6,0-12,5.4-12,12v1c0,6.6,5.4,12,12,12h14.8c6.6,0,12-5.4,12-12v-1
		C-148.5,943.4-153.9,938-160.5,938z"/>
</g>
<rect x="465.9" y="-0.1" class="st3" width="233" height="823"/>
<g>
	<path class="st8" d="M294.2,1080.4h-77.5c-25,0-45.4,20.4-45.4,45.4v623.8c0,25,20.4,45.4,45.4,45.4h77.5c25,0,45.4-20.4,45.4-45.4
		v-623.8C339.6,1100.8,319.2,1080.4,294.2,1080.4z"/>
	<path class="st1" d="M304.8,1232.3l-91.6-3l-41.8-17v156.9l0.2,0c2.9,18.3,44.7,24.9,84,24.9c23.3,0,43.3-2,58-5.7
		c16.7-4.3,25.4-10.7,26.1-19.2l0.1,0v-156.9L304.8,1232.3z"/>
	<g>
		<path class="st8" d="M255.5,1238.3c-40.7,0-84.2-7.1-84.2-27h12c0,0.9,2.9,5.2,17.3,9.2c13.7,3.8,33.2,5.8,54.9,5.8
			c22,0,41.5-1.9,55-5.4c14.2-3.6,17.2-7.7,17.2-8.6h12c0,9-8.8,15.8-26.2,20.3C298.8,1236.3,278.8,1238.3,255.5,1238.3z"/>
	</g>
	<ellipse class="st2" cx="235.1" cy="1312.8" rx="30.9" ry="49.5"/>
	<path class="st6" d="M337.6,1698c0,4.4-33.4,8-80.7,8s-83.7-3.6-83.7-8"/>
	<path class="st6" d="M337.6,1555.1c0,4.4-33.4,8-80.7,8s-83.7-3.6-83.7-8"/>
	<path class="st6" d="M337.6,1412.2c0,4.4-33.4,8-80.7,8s-83.7-3.6-83.7-8"/>
	<path class="st6" d="M336.6,1208.3c0,4.4-33.4,8-80.7,8s-83.7-3.6-83.7-8"/>
	<path d="M266.9,1026.5h-23.8c-6.6,0-12,5.4-12,12v43c0,6.6,5.4,12,12,12h23.8c6.6,0,12-5.4,12-12v-43
		C278.9,1031.9,273.5,1026.5,266.9,1026.5z"/>
	<path d="M321.7,1031.7c2.2,14.5-24.6,14.7-66.2,14.2c-39.3-0.4-69.3,0.3-66.2-14.2c3-14.2,29.7-14.2,66.2-14.2
		C312.7,1017.5,320.5,1023.9,321.7,1031.7z"/>
	<path class="st7" d="M261.9,1014.5h-14.8c-6.6,0-12,5.4-12,12v1c0,6.6,5.4,12,12,12h14.8c6.6,0,12-5.4,12-12v-1
		C273.9,1019.9,268.5,1014.5,261.9,1014.5z"/>
</g>
<rect x="698.7" y="-0.1" class="st3" width="233" height="823"/>
<g>
	<path class="st8" d="M988.4,1022.3h-77.5c-25,0-45.4,20.4-45.4,45.4v623.8c0,25,20.4,45.4,45.4,45.4h77.5c25,0,45.4-20.4,45.4-45.4
		v-623.8C1033.8,1042.8,1013.3,1022.3,988.4,1022.3z"/>
	<path class="st1" d="M998.9,1174.2l-91.6-3l-41.8-17v156.9l0.2,0c2.9,18.3,44.7,24.9,84,24.9c23.3,0,43.3-2,58-5.7
		c16.7-4.3,25.4-10.7,26.1-19.2l0.1,0v-156.9L998.9,1174.2z"/>
	<g>
		<path class="st8" d="M949.6,1180.2c-40.7,0-84.2-7.1-84.2-27h12c0,0.9,2.9,5.2,17.3,9.2c13.7,3.8,33.2,5.8,54.9,5.8
			c22,0,41.5-1.9,55-5.4c14.2-3.6,17.2-7.7,17.2-8.6h12c0,9-8.8,15.8-26.2,20.3C992.9,1178.3,972.9,1180.2,949.6,1180.2z"/>
	</g>
	<ellipse class="st2" cx="929.2" cy="1254.7" rx="30.9" ry="49.5"/>
	<path class="st6" d="M1031.8,1639.9c0,4.4-33.4,8-80.7,8s-83.7-3.6-83.7-8"/>
	<path class="st6" d="M1031.8,1497c0,4.4-33.4,8-80.7,8s-83.7-3.6-83.7-8"/>
	<path class="st6" d="M1031.8,1354.1c0,4.4-33.4,8-80.7,8s-83.7-3.6-83.7-8"/>
	<path class="st6" d="M1030.8,1150.3c0,4.4-33.4,8-80.7,8s-83.7-3.6-83.7-8"/>
	<path d="M961,968.4h-23.8c-6.6,0-12,5.4-12,12v43c0,6.6,5.4,12,12,12H961c6.6,0,12-5.4,12-12v-43C973,973.8,967.6,968.4,961,968.4z
		"/>
	<path d="M1015.8,973.6c2.2,14.5-24.6,14.7-66.2,14.2c-39.3-0.4-69.3,0.3-66.2-14.2c3-14.2,29.7-14.2,66.2-14.2
		C1006.9,959.4,1014.7,965.8,1015.8,973.6z"/>
	<path class="st7" d="M956,956.4h-14.8c-6.6,0-12,5.4-12,12v1c0,6.6,5.4,12,12,12H956c6.6,0,12-5.4,12-12v-1
		C968,961.8,962.6,956.4,956,956.4z"/>
</g>
<rect x="931.9" y="-0.1" class="st3" width="233" height="823"/>
<g>
	<path class="st8" d="M1315,1131.4h-77.5c-25,0-45.4,20.4-45.4,45.4v623.8c0,25,20.4,45.4,45.4,45.4h77.5c25,0,45.4-20.4,45.4-45.4
		v-623.8C1360.4,1151.8,1340,1131.4,1315,1131.4z"/>
	<path class="st1" d="M1325.5,1283.3l-91.6-3l-41.8-17v156.9l0.2,0c2.9,18.3,44.7,24.9,84,24.9c23.3,0,43.3-2,58-5.7
		c16.7-4.3,25.4-10.7,26.1-19.2l0.1,0v-156.9L1325.5,1283.3z"/>
	<g>
		<path class="st8" d="M1276.2,1289.3c-40.7,0-84.2-7.1-84.2-27h12c0,0.9,2.9,5.2,17.3,9.2c13.7,3.8,33.2,5.8,54.9,5.8
			c22,0,41.5-1.9,55-5.4c14.2-3.6,17.2-7.7,17.2-8.6h12c0,9-8.8,15.8-26.2,20.3C1319.6,1287.3,1299.5,1289.3,1276.2,1289.3z"/>
	</g>
	<ellipse class="st2" cx="1255.8" cy="1363.7" rx="30.9" ry="49.5"/>
	<path class="st6" d="M1358.4,1749c0,4.4-33.4,8-80.7,8c-47.3,0-83.7-3.6-83.7-8"/>
	<path class="st6" d="M1358.4,1606.1c0,4.4-33.4,8-80.7,8c-47.3,0-83.7-3.6-83.7-8"/>
	<path class="st6" d="M1358.4,1463.2c0,4.4-33.4,8-80.7,8c-47.3,0-83.7-3.6-83.7-8"/>
	<path class="st6" d="M1357.4,1259.3c0,4.4-33.4,8-80.7,8s-83.7-3.6-83.7-8"/>
	<path d="M1287.6,1077.4h-23.8c-6.6,0-12,5.4-12,12v43c0,6.6,5.4,12,12,12h23.8c6.6,0,12-5.4,12-12v-43
		C1299.6,1082.8,1294.2,1077.4,1287.6,1077.4z"/>
	<path d="M1342.5,1082.7c2.2,14.5-24.6,14.7-66.2,14.2c-39.3-0.4-69.3,0.3-66.2-14.2c3-14.2,29.7-14.2,66.2-14.2
		C1333.5,1068.4,1341.3,1074.9,1342.5,1082.7z"/>
	<path class="st7" d="M1282.7,1065.4h-14.8c-6.6,0-12,5.4-12,12v1c0,6.6,5.4,12,12,12h14.8c6.6,0,12-5.4,12-12v-1
		C1294.7,1070.8,1289.3,1065.4,1282.7,1065.4z"/>
</g>
<rect x="1164.9" y="-0.2" class="st3" width="233" height="823"/>
</svg>
